<?xml version="1.0" encoding="utf-8" standalone="no"?>
<!DOCTYPE svg PUBLIC "-//W3C//DTD SVG 1.1//EN"
  "http://www.w3.org/Graphics/SVG/1.1/DTD/svg11.dtd">
<svg xmlns:xlink="http://www.w3.org/1999/xlink" width="1152pt" height="648pt" viewBox="0 0 1152 648" xmlns="http://www.w3.org/2000/svg" version="1.1">
 <metadata>
  <rdf:RDF xmlns:dc="http://purl.org/dc/elements/1.1/" xmlns:cc="http://creativecommons.org/ns#" xmlns:rdf="http://www.w3.org/1999/02/22-rdf-syntax-ns#">
   <cc:Work>
    <dc:type rdf:resource="http://purl.org/dc/dcmitype/StillImage"/>
    <dc:date>2026-10-03T11:43:13.071936</dc:date>
    <dc:format>image/svg+xml</dc:format>
    <dc:creator>
     <cc:Agent>
      <dc:title>Matplotlib v3.9.4, https://matplotlib.org/</dc:title>
     </cc:Agent>
    </dc:creator>
   </cc:Work>
  </rdf:RDF>
 </metadata>
 <defs>
  <style type="text/css">*{stroke-linejoin: round; stroke-linecap: butt}</style>
 </defs>
 <g id="figure_1">
  <g id="patch_1">
   <path d="M 0 648 
L 1152 648 
L 1152 0 
L 0 0 
z
" style="fill: #f7f3e9"/>
  </g>
  <g id="axes_1">
   <g id="patch_2">
    <path d="M 97.92 492.48 
L 696.96 492.48 
L 696.96 155.52 
L 97.92 155.52 
z
" style="fill: #f7f3e9"/>
   </g>
   <g id="matplotlib.axis_1">
    <g id="xtick_1">
     <g id="line2d_1">
      <path d="M 107.428571 492.48 
L 107.428571 155.52 
" clip-path="url(#pb0c1e9e609)" style="fill: none; stroke: #52635d; stroke-opacity: 0.18; stroke-width: 0.8; stroke-linecap: square"/>
     </g>
     <g id="line2d_2">
      <defs>
       <path id="m93df1bb4a7" d="M 0 0 
L 0 3.5 
" style="stroke: #24312e; stroke-width: 0.8"/>
      </defs>
      <g>
       <use xlink:href="#m93df1bb4a7" x="107.428571" y="492.48" style="fill: #24312e; stroke: #24312e; stroke-width: 0.8"/>
      </g>
     </g>
     <g id="text_1">
      <text style="fill: #24312e; font: 16px 'DejaVu Sans'; text-anchor: middle" x="107.428571" y="511.6375" transform="rotate(-0 107.428571 511.6375)">1</text>
     </g>
    </g>
    <g id="xtick_2">
     <g id="line2d_3">
      <path d="M 297.6 492.48 
L 297.6 155.52 
" clip-path="url(#pb0c1e9e609)" style="fill: none; stroke: #52635d; stroke-opacity: 0.18; stroke-width: 0.8; stroke-linecap: square"/>
     </g>
     <g id="line2d_4">
      <g>
       <use xlink:href="#m93df1bb4a7" x="297.6" y="492.48" style="fill: #24312e; stroke: #24312e; stroke-width: 0.8"/>
      </g>
     </g>
     <g id="text_2">
      <text style="fill: #24312e; font: 16px 'DejaVu Sans'; text-anchor: middle" x="297.6" y="511.6375" transform="rotate(-0 297.6 511.6375)">2</text>
     </g>
    </g>
    <g id="xtick_3">
     <g id="line2d_5">
      <path d="M 487.771429 492.48 
L 487.771429 155.52 
" clip-path="url(#pb0c1e9e609)" style="fill: none; stroke: #52635d; stroke-opacity: 0.18; stroke-width: 0.8; stroke-linecap: square"/>
     </g>
     <g id="line2d_6">
      <g>
       <use xlink:href="#m93df1bb4a7" x="487.771429" y="492.48" style="fill: #24312e; stroke: #24312e; stroke-width: 0.8"/>
      </g>
     </g>
     <g id="text_3">
      <text style="fill: #24312e; font: 16px 'DejaVu Sans'; text-anchor: middle" x="487.771429" y="511.6375" transform="rotate(-0 487.771429 511.6375)">3</text>
     </g>
    </g>
    <g id="xtick_4">
     <g id="line2d_7">
      <path d="M 677.942857 492.48 
L 677.942857 155.52 
" clip-path="url(#pb0c1e9e609)" style="fill: none; stroke: #52635d; stroke-opacity: 0.18; stroke-width: 0.8; stroke-linecap: square"/>
     </g>
     <g id="line2d_8">
      <g>
       <use xlink:href="#m93df1bb4a7" x="677.942857" y="492.48" style="fill: #24312e; stroke: #24312e; stroke-width: 0.8"/>
      </g>
     </g>
     <g id="text_4">
      <text style="fill: #24312e; font: 16px 'DejaVu Sans'; text-anchor: middle" x="677.942857" y="511.6375" transform="rotate(-0 677.942857 511.6375)">4</text>
     </g>
    </g>
    <g id="text_5">
     <text style="fill: #24312e; font: 16px 'DejaVu Sans'; text-anchor: middle" x="397.44" y="531.1225" transform="rotate(-0 397.44 531.1225)">x (arbitrary units)</text>
    </g>
   </g>
   <g id="matplotlib.axis_2">
    <g id="ytick_1">
     <g id="line2d_9">
      <path d="M 97.92 492.48 
L 696.96 492.48 
" clip-path="url(#pb0c1e9e609)" style="fill: none; stroke: #52635d; stroke-opacity: 0.18; stroke-width: 0.8; stroke-linecap: square"/>
     </g>
     <g id="line2d_10">
      <defs>
       <path id="mee6c1d6f65" d="M 0 0 
L -3.5 0 
" style="stroke: #24312e; stroke-width: 0.8"/>
      </defs>
      <g>
       <use xlink:href="#mee6c1d6f65" x="97.92" y="492.48" style="fill: #24312e; stroke: #24312e; stroke-width: 0.8"/>
      </g>
     </g>
     <g id="text_6">
      <text style="fill: #24312e; font: 16px 'DejaVu Sans'; text-anchor: end" x="90.92" y="498.55875" transform="rotate(-0 90.92 498.55875)">0.0</text>
     </g>
    </g>
    <g id="ytick_2">
     <g id="line2d_11">
      <path d="M 97.92 432.841062 
L 696.96 432.841062 
" clip-path="url(#pb0c1e9e609)" style="fill: none; stroke: #52635d; stroke-opacity: 0.18; stroke-width: 0.8; stroke-linecap: square"/>
     </g>
     <g id="line2d_12">
      <g>
       <use xlink:href="#mee6c1d6f65" x="97.92" y="432.841062" style="fill: #24312e; stroke: #24312e; stroke-width: 0.8"/>
      </g>
     </g>
     <g id="text_7">
      <text style="fill: #24312e; font: 16px 'DejaVu Sans'; text-anchor: end" x="90.92" y="438.919812" transform="rotate(-0 90.92 438.919812)">0.2</text>
     </g>
    </g>
    <g id="ytick_3">
     <g id="line2d_13">
      <path d="M 97.92 373.202124 
L 696.96 373.202124 
" clip-path="url(#pb0c1e9e609)" style="fill: none; stroke: #52635d; stroke-opacity: 0.18; stroke-width: 0.8; stroke-linecap: square"/>
     </g>
     <g id="line2d_14">
      <g>
       <use xlink:href="#mee6c1d6f65" x="97.92" y="373.202124" style="fill: #24312e; stroke: #24312e; stroke-width: 0.8"/>
      </g>
     </g>
     <g id="text_8">
      <text style="fill: #24312e; font: 16px 'DejaVu Sans'; text-anchor: end" x="90.92" y="379.280874" transform="rotate(-0 90.92 379.280874)">0.4</text>
     </g>
    </g>
    <g id="ytick_4">
     <g id="line2d_15">
      <path d="M 97.92 313.563186 
L 696.96 313.563186 
" clip-path="url(#pb0c1e9e609)" style="fill: none; stroke: #52635d; stroke-opacity: 0.18; stroke-width: 0.8; stroke-linecap: square"/>
     </g>
     <g id="line2d_16">
      <g>
       <use xlink:href="#mee6c1d6f65" x="97.92" y="313.563186" style="fill: #24312e; stroke: #24312e; stroke-width: 0.8"/>
      </g>
     </g>
     <g id="text_9">
      <text style="fill: #24312e; font: 16px 'DejaVu Sans'; text-anchor: end" x="90.92" y="319.641936" transform="rotate(-0 90.92 319.641936)">0.6</text>
     </g>
    </g>
    <g id="ytick_5">
     <g id="line2d_17">
      <path d="M 97.92 253.924248 
L 696.96 253.924248 
" clip-path="url(#pb0c1e9e609)" style="fill: none; stroke: #52635d; stroke-opacity: 0.18; stroke-width: 0.8; stroke-linecap: square"/>
     </g>
     <g id="line2d_18">
      <g>
       <use xlink:href="#mee6c1d6f65" x="97.92" y="253.924248" style="fill: #24312e; stroke: #24312e; stroke-width: 0.8"/>
      </g>
     </g>
     <g id="text_10">
      <text style="fill: #24312e; font: 16px 'DejaVu Sans'; text-anchor: end" x="90.92" y="260.002998" transform="rotate(-0 90.92 260.002998)">0.8</text>
     </g>
    </g>
    <g id="ytick_6">
     <g id="line2d_19">
      <path d="M 97.92 194.28531 
L 696.96 194.28531 
" clip-path="url(#pb0c1e9e609)" style="fill: none; stroke: #52635d; stroke-opacity: 0.18; stroke-width: 0.8; stroke-linecap: square"/>
     </g>
     <g id="line2d_20">
      <g>
       <use xlink:href="#mee6c1d6f65" x="97.92" y="194.28531" style="fill: #24312e; stroke: #24312e; stroke-width: 0.8"/>
      </g>
     </g>
     <g id="text_11">
      <text style="fill: #24312e; font: 16px 'DejaVu Sans'; text-anchor: end" x="90.92" y="200.36406" transform="rotate(-0 90.92 200.36406)">1.0</text>
     </g>
    </g>
    <g id="text_12">
     <text style="fill: #24312e; font: 16px 'DejaVu Sans'; text-anchor: middle" x="58.1475" y="324" transform="rotate(-90 58.1475 324)">y (arbitrary units)</text>
    </g>
   </g>
   <g id="line2d_21">
    <path d="M 107.428571 194.28531 
L 111.232 205.864573 
L 115.035429 216.782246 
L 118.838857 227.087787 
L 122.642286 236.826116 
L 126.445714 246.038107 
L 130.249143 254.761019 
L 134.052571 263.028869 
L 137.856 270.872769 
L 141.659429 278.321216 
L 145.462857 285.400354 
L 149.266286 292.134199 
L 153.069714 298.544848 
L 156.873143 304.652657 
L 162.578286 313.287229 
L 168.283429 321.339797 
L 173.988571 328.861514 
L 179.693714 335.898037 
L 185.398857 342.490216 
L 191.104 348.67469 
L 196.809143 354.484401 
L 202.514286 359.949027 
L 208.219429 365.095366 
L 213.924571 369.947665 
L 219.629714 374.527905 
L 225.334857 378.856052 
L 231.04 382.95027 
L 236.745143 386.827119 
L 244.352 391.684066 
L 251.958857 396.213636 
L 259.565714 400.444602 
L 267.172571 404.402646 
L 274.779429 408.110746 
L 282.386286 411.589513 
L 289.993143 414.857475 
L 299.501714 418.67126 
L 309.010286 422.210726 
L 318.518857 425.501565 
L 328.027429 428.566529 
L 337.536 431.425826 
L 348.946286 434.610705 
L 360.356571 437.552724 
L 371.766857 440.275961 
L 385.078857 443.204653 
L 398.390857 445.893631 
L 411.702857 448.368359 
L 426.916571 450.962584 
L 442.130286 453.334509 
L 459.245714 455.767819 
L 476.361143 457.9811 
L 495.378286 460.213435 
L 516.297143 462.427625 
L 537.216 464.421483 
L 560.036571 466.378438 
L 584.758857 468.276082 
L 611.382857 470.097212 
L 639.908571 471.829398 
L 672.237714 473.560098 
L 677.942857 473.842832 
L 677.942857 473.842832 
" clip-path="url(#pb0c1e9e609)" style="fill: none; stroke: #3c665b; stroke-width: 3; stroke-linecap: square"/>
   </g>
   <g id="line2d_22">
    <path d="M 107.428571 194.28531 
L 116.937143 209.795575 
L 126.445714 224.850265 
L 135.954286 239.449381 
L 145.462857 253.59292 
L 154.971429 267.280885 
L 164.48 280.513274 
L 173.988571 293.290088 
L 183.497143 305.611327 
L 191.104 315.140304 
L 198.710857 324.377713 
L 206.317714 333.323554 
L 213.924571 341.977827 
L 221.531429 350.340531 
L 229.138286 358.411667 
L 236.745143 366.191235 
L 244.352 373.679235 
L 251.958857 380.875667 
L 259.565714 387.780531 
L 267.172571 394.393827 
L 274.779429 400.715554 
L 282.386286 406.745713 
L 289.993143 412.484304 
L 297.6 417.931327 
L 305.206857 423.086782 
L 312.813714 427.950669 
L 320.420571 432.522988 
L 328.027429 436.803738 
L 335.634286 440.79292 
L 343.241143 444.490535 
L 350.848 447.896581 
L 358.454857 451.011058 
L 366.061714 453.833968 
L 373.668571 456.36531 
L 381.275429 458.605083 
L 388.882286 460.553288 
L 396.489143 462.209926 
L 404.096 463.574995 
L 411.702857 464.648496 
L 419.309714 465.430428 
L 426.916571 465.920793 
L 434.523429 466.119589 
L 442.130286 466.026818 
L 449.737143 465.642478 
L 457.344 464.96657 
L 464.950857 463.999094 
L 472.557714 462.74005 
L 480.164571 461.189437 
L 487.771429 459.347257 
L 495.378286 457.213508 
L 502.985143 454.788191 
L 510.592 452.071306 
L 518.198857 449.062853 
L 525.805714 445.762832 
L 533.412571 442.171242 
L 541.019429 438.288085 
L 548.626286 434.113359 
L 556.233143 429.647065 
L 563.84 424.889204 
L 571.446857 419.839773 
L 579.053714 414.498775 
L 586.660571 408.866209 
L 594.267429 402.942074 
L 601.874286 396.726372 
L 609.481143 390.219101 
L 617.088 383.420262 
L 624.694857 376.329855 
L 632.301714 368.94788 
L 639.908571 361.274336 
L 647.515429 353.309225 
L 655.122286 345.052545 
L 662.729143 336.504297 
L 670.336 327.664481 
L 677.942857 318.533097 
L 677.942857 318.533097 
" clip-path="url(#pb0c1e9e609)" style="fill: none; stroke-dasharray: 11.1,4.8; stroke-dashoffset: 0; stroke: #98533f; stroke-width: 3"/>
   </g>
   <g id="patch_3">
    <path d="M 97.92 492.48 
L 97.92 155.52 
" style="fill: none; stroke: #52635d; stroke-width: 0.8; stroke-linejoin: miter; stroke-linecap: square"/>
   </g>
   <g id="patch_4">
    <path d="M 97.92 492.48 
L 696.96 492.48 
" style="fill: none; stroke: #52635d; stroke-width: 0.8; stroke-linejoin: miter; stroke-linecap: square"/>
   </g>
   <g id="PathCollection_1">
    <defs>
     <path id="m1dc1429e3b" d="M 0 4.609772 
C 1.222526 4.609772 2.395145 4.124058 3.259601 3.259601 
C 4.124058 2.395145 4.609772 1.222526 4.609772 0 
C 4.609772 -1.222526 4.124058 -2.395145 3.259601 -3.259601 
C 2.395145 -4.124058 1.222526 -4.609772 0 -4.609772 
C -1.222526 -4.609772 -2.395145 -4.124058 -3.259601 -3.259601 
C -4.124058 -2.395145 -4.609772 -1.222526 -4.609772 0 
C -4.609772 1.222526 -4.124058 2.395145 -3.259601 3.259601 
C -2.395145 4.124058 -1.222526 4.609772 0 4.609772 
z
" style="stroke: #24312e"/>
    </defs>
    <g clip-path="url(#pb0c1e9e609)">
     <use xlink:href="#m1dc1429e3b" x="107.428571" y="194.28531" style="fill: #24312e; stroke: #24312e"/>
     <use xlink:href="#m1dc1429e3b" x="297.6" y="417.931327" style="fill: #24312e; stroke: #24312e"/>
     <use xlink:href="#m1dc1429e3b" x="487.771429" y="459.347257" style="fill: #24312e; stroke: #24312e"/>
    </g>
   </g>
   <g id="PathCollection_2">
    <path d="M 677.942857 481.25903 
L 685.359056 473.842832 
L 677.942857 466.426633 
L 670.526659 473.842832 
z
" clip-path="url(#pb0c1e9e609)" style="fill: #f7f3e9; stroke: #3c665b; stroke-width: 2"/>
    <path d="M 677.942857 325.949296 
L 685.359056 318.533097 
L 677.942857 311.116899 
L 670.526659 318.533097 
z
" clip-path="url(#pb0c1e9e609)" style="fill: #f7f3e9; stroke: #98533f; stroke-width: 2"/>
   </g>
   <g id="legend_1">
    <g id="patch_5">
     <path d="M 476.48 247.485 
L 685.76 247.485 
Q 688.96 247.485 688.96 244.285 
L 688.96 166.72 
Q 688.96 163.52 685.76 163.52 
L 476.48 163.52 
Q 473.28 163.52 473.28 166.72 
L 473.28 244.285 
Q 473.28 247.485 476.48 247.485 
z
" style="fill: #f7f3e9; opacity: 0.8; stroke: #cccccc; stroke-linejoin: miter"/>
    </g>
    <g id="line2d_23">
     <path d="M 479.68 178.56 
L 495.68 178.56 
L 511.68 178.56 
" style="fill: none; stroke: #3c665b; stroke-width: 3; stroke-linecap: square"/>
    </g>
    <g id="text_13">
     <!-- $f(x)=1/x^2$ -->
     <g style="fill: #24312e" transform="translate(524.48 184.16)">
      <text>
       <tspan style="font: italic 16px 'DejaVu Serif'" x="0 12.164062 62.475" y="-0.8687500000000004">fxx</tspan>
       <tspan style="font: 16px 'DejaVu Serif'" x="5.921875 21.1875 30.464063 46.904688 57.084375" y="-0.8687500000000004">()=1/</tspan>
       <tspan style="font: 11.2px 'DejaVu Serif'" x="72.177292" y="-6.6875">2</tspan>
      </text>
     </g>
    </g>
    <g id="line2d_24">
     <path d="M 479.68 205.44 
L 495.68 205.44 
L 511.68 205.44 
" style="fill: none; stroke-dasharray: 11.1,4.8; stroke-dashoffset: 0; stroke: #98533f; stroke-width: 3"/>
    </g>
    <g id="text_14">
     <!-- $q(x)=\frac{11}{36}x^2-\frac{5}{3}x+\frac{85}{36}$ -->
     <g style="fill: #24312e" transform="translate(524.48 211.04)">
      <text>
       <tspan style="font: italic 16px 'DejaVu Serif'" x="0 16.484375 67.476562 113.321042" y="-0.5078125">qxxx</tspan>
       <tspan style="font: 16px 'DejaVu Serif'" x="10.242188 25.507812 34.784375 87.754635 125.378854" y="-0.5078125">()=−+</tspan>
       <tspan style="font: 11.2px 'DejaVu Serif'" x="51.225 51.225 58.350781 58.350781 77.178854 104.19526 104.19526 141.819479 141.819479 148.94526 148.94526" y="-7.5234375 5.7890625 -7.5234375 5.7890625 -6.3265625 -7.687500000000002 5.7890625 -7.6875 5.7890625 -7.6875 5.7890625">13162538356</tspan>
      </text>
      <rect x="51.225" y="-4.523438" width="14.251562" height="1"/>
      <rect x="104.19526" y="-4.523438" width="7.125781" height="1"/>
      <rect x="141.819479" y="-4.523438" width="14.251563" height="1"/>
     </g>
    </g>
    <g id="PathCollection_3">
     <g>
      <use xlink:href="#m1dc1429e3b" x="495.68" y="233.5575" style="fill: #24312e; stroke: #24312e"/>
     </g>
    </g>
    <g id="text_15">
     <text style="fill: #24312e; font: 16px 'DejaVu Sans'; text-anchor: start" x="524.48" y="237.7575" transform="rotate(-0 524.48 237.7575)">Three fitting points</text>
    </g>
   </g>
  </g>
  <g id="text_16">
   <text style="fill: #24312e; font: 700 28px 'DejaVu Sans'; text-anchor: start" x="74.88" y="45.36" transform="rotate(-0 74.88 45.36)">Zero error on three points does not identify a law</text>
  </g>
  <g id="text_17">
   <text style="fill: #52635d; font: 19px 'DejaVu Sans'; text-anchor: start" x="74.88" y="90.72" transform="rotate(-0 74.88 90.72)">Constructed noise-free example: both candidates fit x = 1, 2, 3 exactly.</text>
  </g>
  <g id="text_18">
   <text style="fill: #24312e; font: 700 22px 'DejaVu Sans'; text-anchor: start" x="748.8" y="213.84" transform="rotate(-0 748.8 213.84)">At a new input x = 4</text>
  </g>
  <g id="text_19">
   <text style="fill: #3c665b; font: 18px 'DejaVu Sans'; text-anchor: start" x="748.8" y="272.16" transform="rotate(-0 748.8 272.16)">Inverse square: 1/16 = 0.0625</text>
  </g>
  <g id="text_20">
   <text style="fill: #98533f; font: 18px 'DejaVu Sans'; text-anchor: start" x="748.8" y="330.48" transform="rotate(-0 748.8 330.48)">Quadratic: 7/12 ≈ 0.5833</text>
  </g>
  <g id="text_21">
   <text style="fill: #24312e; font: 17px 'DejaVu Sans'" transform="translate(748.8 414.257031)">New measurements can distinguish</text>
   <text style="fill: #24312e; font: 17px 'DejaVu Sans'" transform="translate(748.8 437.168516)">the candidates. A description of</text>
   <text style="fill: #24312e; font: 17px 'DejaVu Sans'" transform="translate(748.8 460.08)">“good fit” cannot do so by itself.</text>
  </g>
  <g id="text_22">
   <text style="fill: #24312e; font: 700 18px 'DejaVu Sans'; text-anchor: start" x="74.88" y="557.28" transform="rotate(-0 74.88 557.28)">Formal proof checks a specified proposition. Data fit supports a hypothesis on a sampled domain.</text>
  </g>
  <g id="text_23">
   <text style="fill: #52635d; font: 15px 'DejaVu Sans'; text-anchor: start" x="74.88" y="599.4" transform="rotate(-0 74.88 599.4)">Exact analytical curves and constructed data. The new input x = 4 is outside the fitting locations.</text>
  </g>
 </g>
 <defs>
  <clipPath id="pb0c1e9e609">
   <rect x="97.92" y="155.52" width="599.04" height="336.96"/>
  </clipPath>
 </defs>
</svg>
