<svg xmlns="http://www.w3.org/2000/svg" width="900" height="460" viewBox="0 0 900 460">
<rect width="100%" height="100%" fill="white"/>
<style>text{font-family:Inter,Helvetica,Arial,sans-serif;fill:#0f172a}.axis{stroke:#334155;stroke-width:1.4}.grid{stroke:#e2e8f0;stroke-width:1}.tick{font-size:12px;fill:#475569}.title{font-size:20px;font-weight:700}.subtitle{font-size:13px;fill:#475569}.legend{font-size:13px}</style>
<text class="title" x="450.0" y="28" text-anchor="middle">Posterior Beliefs Over Action Values</text>
<text class="subtitle" x="450.0" y="48" text-anchor="middle">Three normal posteriors: mean controls exploitation, width controls uncertainty-driven exploration</text>
<line class="grid" x1="74.00" y1="54" x2="74.00" y2="388"/>
<text class="tick" x="74.00" y="412" text-anchor="middle">-2</text>
<line class="grid" x1="187.14" y1="54" x2="187.14" y2="388"/>
<text class="tick" x="187.14" y="412" text-anchor="middle">-1</text>
<line class="grid" x1="300.29" y1="54" x2="300.29" y2="388"/>
<text class="tick" x="300.29" y="412" text-anchor="middle">0</text>
<line class="grid" x1="413.43" y1="54" x2="413.43" y2="388"/>
<text class="tick" x="413.43" y="412" text-anchor="middle">1</text>
<line class="grid" x1="526.57" y1="54" x2="526.57" y2="388"/>
<text class="tick" x="526.57" y="412" text-anchor="middle">2</text>
<line class="grid" x1="639.71" y1="54" x2="639.71" y2="388"/>
<text class="tick" x="639.71" y="412" text-anchor="middle">3</text>
<line class="grid" x1="752.86" y1="54" x2="752.86" y2="388"/>
<text class="tick" x="752.86" y="412" text-anchor="middle">4</text>
<line class="grid" x1="866.00" y1="54" x2="866.00" y2="388"/>
<text class="tick" x="866.00" y="412" text-anchor="middle">5</text>
<line class="grid" x1="74" y1="388.00" x2="866" y2="388.00"/>
<line class="grid" x1="74" y1="304.50" x2="866" y2="304.50"/>
<line class="grid" x1="74" y1="221.00" x2="866" y2="221.00"/>
<line class="grid" x1="74" y1="137.50" x2="866" y2="137.50"/>
<line class="grid" x1="74" y1="54.00" x2="866" y2="54.00"/>
<line class="axis" x1="74" y1="388" x2="866" y2="388"/>
<line class="axis" x1="74" y1="54" x2="74" y2="388"/>
<text class="tick" x="470.0" y="438" text-anchor="middle">Action value Q(a)</text>
<text class="tick" transform="translate(22 221.0) rotate(-90)" text-anchor="middle">Posterior density</text>
<path d="M 74.00,388.00 L 74.00,388.00 L 77.60,388.00 L 81.20,388.00 L 84.80,388.00 L 88.40,388.00 L 92.00,388.00 L 95.60,388.00 L 99.20,388.00 L 102.80,388.00 L 106.40,388.00 L 110.00,388.00 L 113.60,388.00 L 117.20,388.00 L 120.80,388.00 L 124.40,388.00 L 128.00,388.00 L 131.60,388.00 L 135.20,388.00 L 138.80,388.00 L 142.40,388.00 L 146.00,388.00 L 149.60,388.00 L 153.20,388.00 L 156.80,388.00 L 160.40,388.00 L 164.00,388.00 L 167.60,388.00 L 171.20,388.00 L 174.80,388.00 L 178.40,388.00 L 182.00,388.00 L 185.60,388.00 L 189.20,388.00 L 192.80,388.00 L 196.40,388.00 L 200.00,388.00 L 203.60,388.00 L 207.20,388.00 L 210.80,388.00 L 214.40,388.00 L 218.00,388.00 L 221.60,388.00 L 225.20,388.00 L 228.80,388.00 L 232.40,388.00 L 236.00,388.00 L 239.60,388.00 L 243.20,388.00 L 246.80,388.00 L 250.40,388.00 L 254.00,388.00 L 257.60,388.00 L 261.20,388.00 L 264.80,388.00 L 268.40,388.00 L 272.00,388.00 L 275.60,388.00 L 279.20,388.00 L 282.80,388.00 L 286.40,388.00 L 290.00,388.00 L 293.60,388.00 L 297.20,388.00 L 300.80,388.00 L 304.40,388.00 L 308.00,388.00 L 311.60,388.00 L 315.20,388.00 L 318.80,388.00 L 322.40,388.00 L 326.00,388.00 L 329.60,388.00 L 333.20,388.00 L 336.80,388.00 L 340.40,388.00 L 344.00,388.00 L 347.60,388.00 L 351.20,388.00 L 354.80,388.00 L 358.40,388.00 L 362.00,388.00 L 365.60,388.00 L 369.20,388.00 L 372.80,388.00 L 376.40,388.00 L 380.00,388.00 L 383.60,388.00 L 387.20,388.00 L 390.80,388.00 L 394.40,388.00 L 398.00,388.00 L 401.60,388.00 L 405.20,388.00 L 408.80,388.00 L 412.40,388.00 L 416.00,388.00 L 419.60,388.00 L 423.20,388.00 L 426.80,388.00 L 430.40,388.00 L 434.00,387.99 L 437.60,387.99 L 441.20,387.98 L 444.80,387.98 L 448.40,387.96 L 452.00,387.95 L 455.60,387.92 L 459.20,387.89 L 462.80,387.84 L 466.40,387.78 L 470.00,387.69 L 473.60,387.56 L 477.20,387.40 L 480.80,387.17 L 484.40,386.87 L 488.00,386.48 L 491.60,385.96 L 495.20,385.29 L 498.80,384.43 L 502.40,383.33 L 506.00,381.95 L 509.60,380.23 L 513.20,378.09 L 516.80,375.48 L 520.40,372.30 L 524.00,368.48 L 527.60,363.93 L 531.20,358.56 L 534.80,352.29 L 538.40,345.04 L 542.00,336.75 L 545.60,327.36 L 549.20,316.84 L 552.80,305.19 L 556.40,292.41 L 560.00,278.58 L 563.60,263.77 L 567.20,248.12 L 570.80,231.79 L 574.40,215.00 L 578.00,197.97 L 581.60,180.99 L 585.20,164.35 L 588.80,148.35 L 592.40,133.33 L 596.00,119.59 L 599.60,107.44 L 603.20,97.16 L 606.80,88.97 L 610.40,83.09 L 614.00,79.65 L 617.60,78.74 L 621.20,80.38 L 624.80,84.53 L 628.40,91.08 L 632.00,99.89 L 635.60,110.74 L 639.20,123.37 L 642.80,137.51 L 646.40,152.84 L 650.00,169.05 L 653.60,185.82 L 657.20,202.85 L 660.80,219.83 L 664.40,236.52 L 668.00,252.67 L 671.60,268.09 L 675.20,282.63 L 678.80,296.17 L 682.40,308.63 L 686.00,319.97 L 689.60,330.16 L 693.20,339.23 L 696.80,347.22 L 700.40,354.18 L 704.00,360.18 L 707.60,365.31 L 711.20,369.64 L 714.80,373.27 L 718.40,376.28 L 722.00,378.75 L 725.60,380.76 L 729.20,382.38 L 732.80,383.67 L 736.40,384.70 L 740.00,385.50 L 743.60,386.12 L 747.20,386.60 L 750.80,386.97 L 754.40,387.24 L 758.00,387.45 L 761.60,387.60 L 765.20,387.72 L 768.80,387.80 L 772.40,387.86 L 776.00,387.90 L 779.60,387.93 L 783.20,387.95 L 786.80,387.97 L 790.40,387.98 L 794.00,387.99 L 797.60,387.99 L 801.20,387.99 L 804.80,388.00 L 808.40,388.00 L 812.00,388.00 L 815.60,388.00 L 819.20,388.00 L 822.80,388.00 L 826.40,388.00 L 830.00,388.00 L 833.60,388.00 L 837.20,388.00 L 840.80,388.00 L 844.40,388.00 L 848.00,388.00 L 851.60,388.00 L 855.20,388.00 L 858.80,388.00 L 862.40,388.00 L 866.00,388.00 L 866.00,388.00 Z" fill="rgba(37,99,235,0.10)"/>
<path d="M 74.00,388.00 L 74.00,387.99 L 77.60,387.99 L 81.20,387.99 L 84.80,387.98 L 88.40,387.98 L 92.00,387.98 L 95.60,387.98 L 99.20,387.97 L 102.80,387.97 L 106.40,387.96 L 110.00,387.96 L 113.60,387.95 L 117.20,387.95 L 120.80,387.94 L 124.40,387.93 L 128.00,387.92 L 131.60,387.91 L 135.20,387.90 L 138.80,387.88 L 142.40,387.87 L 146.00,387.85 L 149.60,387.83 L 153.20,387.81 L 156.80,387.79 L 160.40,387.76 L 164.00,387.73 L 167.60,387.70 L 171.20,387.66 L 174.80,387.62 L 178.40,387.58 L 182.00,387.53 L 185.60,387.47 L 189.20,387.41 L 192.80,387.34 L 196.40,387.27 L 200.00,387.19 L 203.60,387.10 L 207.20,387.00 L 210.80,386.89 L 214.40,386.77 L 218.00,386.64 L 221.60,386.50 L 225.20,386.34 L 228.80,386.18 L 232.40,385.99 L 236.00,385.79 L 239.60,385.58 L 243.20,385.34 L 246.80,385.09 L 250.40,384.81 L 254.00,384.52 L 257.60,384.20 L 261.20,383.85 L 264.80,383.48 L 268.40,383.08 L 272.00,382.65 L 275.60,382.20 L 279.20,381.71 L 282.80,381.18 L 286.40,380.62 L 290.00,380.02 L 293.60,379.39 L 297.20,378.71 L 300.80,377.99 L 304.40,377.23 L 308.00,376.43 L 311.60,375.58 L 315.20,374.68 L 318.80,373.73 L 322.40,372.73 L 326.00,371.67 L 329.60,370.57 L 333.20,369.41 L 336.80,368.20 L 340.40,366.93 L 344.00,365.60 L 347.60,364.22 L 351.20,362.79 L 354.80,361.29 L 358.40,359.74 L 362.00,358.13 L 365.60,356.46 L 369.20,354.74 L 372.80,352.97 L 376.40,351.14 L 380.00,349.26 L 383.60,347.33 L 387.20,345.35 L 390.80,343.32 L 394.40,341.25 L 398.00,339.14 L 401.60,337.00 L 405.20,334.81 L 408.80,332.60 L 412.40,330.36 L 416.00,328.09 L 419.60,325.81 L 423.20,323.51 L 426.80,321.20 L 430.40,318.89 L 434.00,316.57 L 437.60,314.27 L 441.20,311.97 L 444.80,309.69 L 448.40,307.43 L 452.00,305.19 L 455.60,303.00 L 459.20,300.84 L 462.80,298.72 L 466.40,296.66 L 470.00,294.66 L 473.60,292.71 L 477.20,290.84 L 480.80,289.04 L 484.40,287.32 L 488.00,285.69 L 491.60,284.14 L 495.20,282.69 L 498.80,281.34 L 502.40,280.10 L 506.00,278.96 L 509.60,277.93 L 513.20,277.02 L 516.80,276.22 L 520.40,275.55 L 524.00,275.00 L 527.60,274.57 L 531.20,274.27 L 534.80,274.10 L 538.40,274.05 L 542.00,274.14 L 545.60,274.35 L 549.20,274.68 L 552.80,275.14 L 556.40,275.73 L 560.00,276.44 L 563.60,277.27 L 567.20,278.21 L 570.80,279.27 L 574.40,280.44 L 578.00,281.72 L 581.60,283.10 L 585.20,284.57 L 588.80,286.15 L 592.40,287.80 L 596.00,289.55 L 599.60,291.37 L 603.20,293.26 L 606.80,295.22 L 610.40,297.24 L 614.00,299.32 L 617.60,301.45 L 621.20,303.62 L 624.80,305.83 L 628.40,308.07 L 632.00,310.34 L 635.60,312.62 L 639.20,314.92 L 642.80,317.23 L 646.40,319.55 L 650.00,321.86 L 653.60,324.17 L 657.20,326.46 L 660.80,328.74 L 664.40,331.00 L 668.00,333.24 L 671.60,335.44 L 675.20,337.61 L 678.80,339.75 L 682.40,341.85 L 686.00,343.91 L 689.60,345.92 L 693.20,347.88 L 696.80,349.80 L 700.40,351.67 L 704.00,353.48 L 707.60,355.24 L 711.20,356.95 L 714.80,358.59 L 718.40,360.19 L 722.00,361.72 L 725.60,363.20 L 729.20,364.62 L 732.80,365.99 L 736.40,367.30 L 740.00,368.55 L 743.60,369.75 L 747.20,370.89 L 750.80,371.98 L 754.40,373.02 L 758.00,374.00 L 761.60,374.94 L 765.20,375.82 L 768.80,376.66 L 772.40,377.46 L 776.00,378.20 L 779.60,378.91 L 783.20,379.57 L 786.80,380.20 L 790.40,380.78 L 794.00,381.33 L 797.60,381.85 L 801.20,382.33 L 804.80,382.78 L 808.40,383.20 L 812.00,383.59 L 815.60,383.95 L 819.20,384.29 L 822.80,384.60 L 826.40,384.89 L 830.00,385.16 L 833.60,385.41 L 837.20,385.64 L 840.80,385.85 L 844.40,386.05 L 848.00,386.23 L 851.60,386.39 L 855.20,386.54 L 858.80,386.68 L 862.40,386.81 L 866.00,386.92 L 866.00,388.00 Z" fill="rgba(245,158,11,0.12)"/>
<path d="M 74.00,388.00 L 74.00,388.00 L 77.60,388.00 L 81.20,388.00 L 84.80,388.00 L 88.40,388.00 L 92.00,388.00 L 95.60,388.00 L 99.20,388.00 L 102.80,388.00 L 106.40,388.00 L 110.00,388.00 L 113.60,388.00 L 117.20,388.00 L 120.80,388.00 L 124.40,388.00 L 128.00,388.00 L 131.60,388.00 L 135.20,388.00 L 138.80,388.00 L 142.40,388.00 L 146.00,388.00 L 149.60,388.00 L 153.20,388.00 L 156.80,388.00 L 160.40,388.00 L 164.00,388.00 L 167.60,387.99 L 171.20,387.99 L 174.80,387.99 L 178.40,387.98 L 182.00,387.98 L 185.60,387.97 L 189.20,387.96 L 192.80,387.95 L 196.40,387.93 L 200.00,387.91 L 203.60,387.88 L 207.20,387.84 L 210.80,387.79 L 214.40,387.73 L 218.00,387.65 L 221.60,387.55 L 225.20,387.43 L 228.80,387.27 L 232.40,387.07 L 236.00,386.83 L 239.60,386.52 L 243.20,386.16 L 246.80,385.71 L 250.40,385.16 L 254.00,384.50 L 257.60,383.72 L 261.20,382.78 L 264.80,381.66 L 268.40,380.35 L 272.00,378.82 L 275.60,377.02 L 279.20,374.95 L 282.80,372.56 L 286.40,369.82 L 290.00,366.70 L 293.60,363.18 L 297.20,359.21 L 300.80,354.78 L 304.40,349.86 L 308.00,344.42 L 311.60,338.46 L 315.20,331.97 L 318.80,324.94 L 322.40,317.38 L 326.00,309.31 L 329.60,300.76 L 333.20,291.75 L 336.80,282.35 L 340.40,272.61 L 344.00,262.60 L 347.60,252.40 L 351.20,242.10 L 354.80,231.80 L 358.40,221.60 L 362.00,211.63 L 365.60,201.99 L 369.20,192.81 L 372.80,184.19 L 376.40,176.25 L 380.00,169.10 L 383.60,162.83 L 387.20,157.55 L 390.80,153.31 L 394.40,150.19 L 398.00,148.23 L 401.60,147.46 L 405.20,147.89 L 408.80,149.51 L 412.40,152.30 L 416.00,156.23 L 419.60,161.22 L 423.20,167.21 L 426.80,174.12 L 430.40,181.84 L 434.00,190.28 L 437.60,199.32 L 441.20,208.84 L 444.80,218.73 L 448.40,228.87 L 452.00,239.15 L 455.60,249.46 L 459.20,259.70 L 462.80,269.77 L 466.40,279.60 L 470.00,289.10 L 473.60,298.23 L 477.20,306.91 L 480.80,315.13 L 484.40,322.83 L 488.00,330.01 L 491.60,336.66 L 495.20,342.78 L 498.80,348.36 L 502.40,353.43 L 506.00,358.00 L 509.60,362.09 L 513.20,365.74 L 516.80,368.97 L 520.40,371.81 L 524.00,374.30 L 527.60,376.46 L 531.20,378.33 L 534.80,379.94 L 538.40,381.31 L 542.00,382.48 L 545.60,383.46 L 549.20,384.29 L 552.80,384.99 L 556.40,385.56 L 560.00,386.04 L 563.60,386.43 L 567.20,386.75 L 570.80,387.01 L 574.40,387.22 L 578.00,387.38 L 581.60,387.52 L 585.20,387.63 L 588.80,387.71 L 592.40,387.78 L 596.00,387.83 L 599.60,387.87 L 603.20,387.90 L 606.80,387.93 L 610.40,387.94 L 614.00,387.96 L 617.60,387.97 L 621.20,387.98 L 624.80,387.98 L 628.40,387.99 L 632.00,387.99 L 635.60,387.99 L 639.20,388.00 L 642.80,388.00 L 646.40,388.00 L 650.00,388.00 L 653.60,388.00 L 657.20,388.00 L 660.80,388.00 L 664.40,388.00 L 668.00,388.00 L 671.60,388.00 L 675.20,388.00 L 678.80,388.00 L 682.40,388.00 L 686.00,388.00 L 689.60,388.00 L 693.20,388.00 L 696.80,388.00 L 700.40,388.00 L 704.00,388.00 L 707.60,388.00 L 711.20,388.00 L 714.80,388.00 L 718.40,388.00 L 722.00,388.00 L 725.60,388.00 L 729.20,388.00 L 732.80,388.00 L 736.40,388.00 L 740.00,388.00 L 743.60,388.00 L 747.20,388.00 L 750.80,388.00 L 754.40,388.00 L 758.00,388.00 L 761.60,388.00 L 765.20,388.00 L 768.80,388.00 L 772.40,388.00 L 776.00,388.00 L 779.60,388.00 L 783.20,388.00 L 786.80,388.00 L 790.40,388.00 L 794.00,388.00 L 797.60,388.00 L 801.20,388.00 L 804.80,388.00 L 808.40,388.00 L 812.00,388.00 L 815.60,388.00 L 819.20,388.00 L 822.80,388.00 L 826.40,388.00 L 830.00,388.00 L 833.60,388.00 L 837.20,388.00 L 840.80,388.00 L 844.40,388.00 L 848.00,388.00 L 851.60,388.00 L 855.20,388.00 L 858.80,388.00 L 862.40,388.00 L 866.00,388.00 L 866.00,388.00 Z" fill="rgba(16,185,129,0.10)"/>
<path d="M 74.00,388.00 L 77.60,388.00 L 81.20,388.00 L 84.80,388.00 L 88.40,388.00 L 92.00,388.00 L 95.60,388.00 L 99.20,388.00 L 102.80,388.00 L 106.40,388.00 L 110.00,388.00 L 113.60,388.00 L 117.20,388.00 L 120.80,388.00 L 124.40,388.00 L 128.00,388.00 L 131.60,388.00 L 135.20,388.00 L 138.80,388.00 L 142.40,388.00 L 146.00,388.00 L 149.60,388.00 L 153.20,388.00 L 156.80,388.00 L 160.40,388.00 L 164.00,388.00 L 167.60,388.00 L 171.20,388.00 L 174.80,388.00 L 178.40,388.00 L 182.00,388.00 L 185.60,388.00 L 189.20,388.00 L 192.80,388.00 L 196.40,388.00 L 200.00,388.00 L 203.60,388.00 L 207.20,388.00 L 210.80,388.00 L 214.40,388.00 L 218.00,388.00 L 221.60,388.00 L 225.20,388.00 L 228.80,388.00 L 232.40,388.00 L 236.00,388.00 L 239.60,388.00 L 243.20,388.00 L 246.80,388.00 L 250.40,388.00 L 254.00,388.00 L 257.60,388.00 L 261.20,388.00 L 264.80,388.00 L 268.40,388.00 L 272.00,388.00 L 275.60,388.00 L 279.20,388.00 L 282.80,388.00 L 286.40,388.00 L 290.00,388.00 L 293.60,388.00 L 297.20,388.00 L 300.80,388.00 L 304.40,388.00 L 308.00,388.00 L 311.60,388.00 L 315.20,388.00 L 318.80,388.00 L 322.40,388.00 L 326.00,388.00 L 329.60,388.00 L 333.20,388.00 L 336.80,388.00 L 340.40,388.00 L 344.00,388.00 L 347.60,388.00 L 351.20,388.00 L 354.80,388.00 L 358.40,388.00 L 362.00,388.00 L 365.60,388.00 L 369.20,388.00 L 372.80,388.00 L 376.40,388.00 L 380.00,388.00 L 383.60,388.00 L 387.20,388.00 L 390.80,388.00 L 394.40,388.00 L 398.00,388.00 L 401.60,388.00 L 405.20,388.00 L 408.80,388.00 L 412.40,388.00 L 416.00,388.00 L 419.60,388.00 L 423.20,388.00 L 426.80,388.00 L 430.40,388.00 L 434.00,387.99 L 437.60,387.99 L 441.20,387.98 L 444.80,387.98 L 448.40,387.96 L 452.00,387.95 L 455.60,387.92 L 459.20,387.89 L 462.80,387.84 L 466.40,387.78 L 470.00,387.69 L 473.60,387.56 L 477.20,387.40 L 480.80,387.17 L 484.40,386.87 L 488.00,386.48 L 491.60,385.96 L 495.20,385.29 L 498.80,384.43 L 502.40,383.33 L 506.00,381.95 L 509.60,380.23 L 513.20,378.09 L 516.80,375.48 L 520.40,372.30 L 524.00,368.48 L 527.60,363.93 L 531.20,358.56 L 534.80,352.29 L 538.40,345.04 L 542.00,336.75 L 545.60,327.36 L 549.20,316.84 L 552.80,305.19 L 556.40,292.41 L 560.00,278.58 L 563.60,263.77 L 567.20,248.12 L 570.80,231.79 L 574.40,215.00 L 578.00,197.97 L 581.60,180.99 L 585.20,164.35 L 588.80,148.35 L 592.40,133.33 L 596.00,119.59 L 599.60,107.44 L 603.20,97.16 L 606.80,88.97 L 610.40,83.09 L 614.00,79.65 L 617.60,78.74 L 621.20,80.38 L 624.80,84.53 L 628.40,91.08 L 632.00,99.89 L 635.60,110.74 L 639.20,123.37 L 642.80,137.51 L 646.40,152.84 L 650.00,169.05 L 653.60,185.82 L 657.20,202.85 L 660.80,219.83 L 664.40,236.52 L 668.00,252.67 L 671.60,268.09 L 675.20,282.63 L 678.80,296.17 L 682.40,308.63 L 686.00,319.97 L 689.60,330.16 L 693.20,339.23 L 696.80,347.22 L 700.40,354.18 L 704.00,360.18 L 707.60,365.31 L 711.20,369.64 L 714.80,373.27 L 718.40,376.28 L 722.00,378.75 L 725.60,380.76 L 729.20,382.38 L 732.80,383.67 L 736.40,384.70 L 740.00,385.50 L 743.60,386.12 L 747.20,386.60 L 750.80,386.97 L 754.40,387.24 L 758.00,387.45 L 761.60,387.60 L 765.20,387.72 L 768.80,387.80 L 772.40,387.86 L 776.00,387.90 L 779.60,387.93 L 783.20,387.95 L 786.80,387.97 L 790.40,387.98 L 794.00,387.99 L 797.60,387.99 L 801.20,387.99 L 804.80,388.00 L 808.40,388.00 L 812.00,388.00 L 815.60,388.00 L 819.20,388.00 L 822.80,388.00 L 826.40,388.00 L 830.00,388.00 L 833.60,388.00 L 837.20,388.00 L 840.80,388.00 L 844.40,388.00 L 848.00,388.00 L 851.60,388.00 L 855.20,388.00 L 858.80,388.00 L 862.40,388.00 L 866.00,388.00" fill="none" stroke="#2563eb" stroke-width="4" stroke-linecap="round"/>
<line x1="617.09" y1="388.00" x2="617.09" y2="78.71" stroke="#2563eb" stroke-width="1.2" stroke-dasharray="5 5" opacity="0.7"/>
<path d="M 74.00,387.99 L 77.60,387.99 L 81.20,387.99 L 84.80,387.98 L 88.40,387.98 L 92.00,387.98 L 95.60,387.98 L 99.20,387.97 L 102.80,387.97 L 106.40,387.96 L 110.00,387.96 L 113.60,387.95 L 117.20,387.95 L 120.80,387.94 L 124.40,387.93 L 128.00,387.92 L 131.60,387.91 L 135.20,387.90 L 138.80,387.88 L 142.40,387.87 L 146.00,387.85 L 149.60,387.83 L 153.20,387.81 L 156.80,387.79 L 160.40,387.76 L 164.00,387.73 L 167.60,387.70 L 171.20,387.66 L 174.80,387.62 L 178.40,387.58 L 182.00,387.53 L 185.60,387.47 L 189.20,387.41 L 192.80,387.34 L 196.40,387.27 L 200.00,387.19 L 203.60,387.10 L 207.20,387.00 L 210.80,386.89 L 214.40,386.77 L 218.00,386.64 L 221.60,386.50 L 225.20,386.34 L 228.80,386.18 L 232.40,385.99 L 236.00,385.79 L 239.60,385.58 L 243.20,385.34 L 246.80,385.09 L 250.40,384.81 L 254.00,384.52 L 257.60,384.20 L 261.20,383.85 L 264.80,383.48 L 268.40,383.08 L 272.00,382.65 L 275.60,382.20 L 279.20,381.71 L 282.80,381.18 L 286.40,380.62 L 290.00,380.02 L 293.60,379.39 L 297.20,378.71 L 300.80,377.99 L 304.40,377.23 L 308.00,376.43 L 311.60,375.58 L 315.20,374.68 L 318.80,373.73 L 322.40,372.73 L 326.00,371.67 L 329.60,370.57 L 333.20,369.41 L 336.80,368.20 L 340.40,366.93 L 344.00,365.60 L 347.60,364.22 L 351.20,362.79 L 354.80,361.29 L 358.40,359.74 L 362.00,358.13 L 365.60,356.46 L 369.20,354.74 L 372.80,352.97 L 376.40,351.14 L 380.00,349.26 L 383.60,347.33 L 387.20,345.35 L 390.80,343.32 L 394.40,341.25 L 398.00,339.14 L 401.60,337.00 L 405.20,334.81 L 408.80,332.60 L 412.40,330.36 L 416.00,328.09 L 419.60,325.81 L 423.20,323.51 L 426.80,321.20 L 430.40,318.89 L 434.00,316.57 L 437.60,314.27 L 441.20,311.97 L 444.80,309.69 L 448.40,307.43 L 452.00,305.19 L 455.60,303.00 L 459.20,300.84 L 462.80,298.72 L 466.40,296.66 L 470.00,294.66 L 473.60,292.71 L 477.20,290.84 L 480.80,289.04 L 484.40,287.32 L 488.00,285.69 L 491.60,284.14 L 495.20,282.69 L 498.80,281.34 L 502.40,280.10 L 506.00,278.96 L 509.60,277.93 L 513.20,277.02 L 516.80,276.22 L 520.40,275.55 L 524.00,275.00 L 527.60,274.57 L 531.20,274.27 L 534.80,274.10 L 538.40,274.05 L 542.00,274.14 L 545.60,274.35 L 549.20,274.68 L 552.80,275.14 L 556.40,275.73 L 560.00,276.44 L 563.60,277.27 L 567.20,278.21 L 570.80,279.27 L 574.40,280.44 L 578.00,281.72 L 581.60,283.10 L 585.20,284.57 L 588.80,286.15 L 592.40,287.80 L 596.00,289.55 L 599.60,291.37 L 603.20,293.26 L 606.80,295.22 L 610.40,297.24 L 614.00,299.32 L 617.60,301.45 L 621.20,303.62 L 624.80,305.83 L 628.40,308.07 L 632.00,310.34 L 635.60,312.62 L 639.20,314.92 L 642.80,317.23 L 646.40,319.55 L 650.00,321.86 L 653.60,324.17 L 657.20,326.46 L 660.80,328.74 L 664.40,331.00 L 668.00,333.24 L 671.60,335.44 L 675.20,337.61 L 678.80,339.75 L 682.40,341.85 L 686.00,343.91 L 689.60,345.92 L 693.20,347.88 L 696.80,349.80 L 700.40,351.67 L 704.00,353.48 L 707.60,355.24 L 711.20,356.95 L 714.80,358.59 L 718.40,360.19 L 722.00,361.72 L 725.60,363.20 L 729.20,364.62 L 732.80,365.99 L 736.40,367.30 L 740.00,368.55 L 743.60,369.75 L 747.20,370.89 L 750.80,371.98 L 754.40,373.02 L 758.00,374.00 L 761.60,374.94 L 765.20,375.82 L 768.80,376.66 L 772.40,377.46 L 776.00,378.20 L 779.60,378.91 L 783.20,379.57 L 786.80,380.20 L 790.40,380.78 L 794.00,381.33 L 797.60,381.85 L 801.20,382.33 L 804.80,382.78 L 808.40,383.20 L 812.00,383.59 L 815.60,383.95 L 819.20,384.29 L 822.80,384.60 L 826.40,384.89 L 830.00,385.16 L 833.60,385.41 L 837.20,385.64 L 840.80,385.85 L 844.40,386.05 L 848.00,386.23 L 851.60,386.39 L 855.20,386.54 L 858.80,386.68 L 862.40,386.81 L 866.00,386.92" fill="none" stroke="#f59e0b" stroke-width="4" stroke-linecap="round"/>
<line x1="537.89" y1="388.00" x2="537.89" y2="274.05" stroke="#f59e0b" stroke-width="1.2" stroke-dasharray="5 5" opacity="0.7"/>
<path d="M 74.00,388.00 L 77.60,388.00 L 81.20,388.00 L 84.80,388.00 L 88.40,388.00 L 92.00,388.00 L 95.60,388.00 L 99.20,388.00 L 102.80,388.00 L 106.40,388.00 L 110.00,388.00 L 113.60,388.00 L 117.20,388.00 L 120.80,388.00 L 124.40,388.00 L 128.00,388.00 L 131.60,388.00 L 135.20,388.00 L 138.80,388.00 L 142.40,388.00 L 146.00,388.00 L 149.60,388.00 L 153.20,388.00 L 156.80,388.00 L 160.40,388.00 L 164.00,388.00 L 167.60,387.99 L 171.20,387.99 L 174.80,387.99 L 178.40,387.98 L 182.00,387.98 L 185.60,387.97 L 189.20,387.96 L 192.80,387.95 L 196.40,387.93 L 200.00,387.91 L 203.60,387.88 L 207.20,387.84 L 210.80,387.79 L 214.40,387.73 L 218.00,387.65 L 221.60,387.55 L 225.20,387.43 L 228.80,387.27 L 232.40,387.07 L 236.00,386.83 L 239.60,386.52 L 243.20,386.16 L 246.80,385.71 L 250.40,385.16 L 254.00,384.50 L 257.60,383.72 L 261.20,382.78 L 264.80,381.66 L 268.40,380.35 L 272.00,378.82 L 275.60,377.02 L 279.20,374.95 L 282.80,372.56 L 286.40,369.82 L 290.00,366.70 L 293.60,363.18 L 297.20,359.21 L 300.80,354.78 L 304.40,349.86 L 308.00,344.42 L 311.60,338.46 L 315.20,331.97 L 318.80,324.94 L 322.40,317.38 L 326.00,309.31 L 329.60,300.76 L 333.20,291.75 L 336.80,282.35 L 340.40,272.61 L 344.00,262.60 L 347.60,252.40 L 351.20,242.10 L 354.80,231.80 L 358.40,221.60 L 362.00,211.63 L 365.60,201.99 L 369.20,192.81 L 372.80,184.19 L 376.40,176.25 L 380.00,169.10 L 383.60,162.83 L 387.20,157.55 L 390.80,153.31 L 394.40,150.19 L 398.00,148.23 L 401.60,147.46 L 405.20,147.89 L 408.80,149.51 L 412.40,152.30 L 416.00,156.23 L 419.60,161.22 L 423.20,167.21 L 426.80,174.12 L 430.40,181.84 L 434.00,190.28 L 437.60,199.32 L 441.20,208.84 L 444.80,218.73 L 448.40,228.87 L 452.00,239.15 L 455.60,249.46 L 459.20,259.70 L 462.80,269.77 L 466.40,279.60 L 470.00,289.10 L 473.60,298.23 L 477.20,306.91 L 480.80,315.13 L 484.40,322.83 L 488.00,330.01 L 491.60,336.66 L 495.20,342.78 L 498.80,348.36 L 502.40,353.43 L 506.00,358.00 L 509.60,362.09 L 513.20,365.74 L 516.80,368.97 L 520.40,371.81 L 524.00,374.30 L 527.60,376.46 L 531.20,378.33 L 534.80,379.94 L 538.40,381.31 L 542.00,382.48 L 545.60,383.46 L 549.20,384.29 L 552.80,384.99 L 556.40,385.56 L 560.00,386.04 L 563.60,386.43 L 567.20,386.75 L 570.80,387.01 L 574.40,387.22 L 578.00,387.38 L 581.60,387.52 L 585.20,387.63 L 588.80,387.71 L 592.40,387.78 L 596.00,387.83 L 599.60,387.87 L 603.20,387.90 L 606.80,387.93 L 610.40,387.94 L 614.00,387.96 L 617.60,387.97 L 621.20,387.98 L 624.80,387.98 L 628.40,387.99 L 632.00,387.99 L 635.60,387.99 L 639.20,388.00 L 642.80,388.00 L 646.40,388.00 L 650.00,388.00 L 653.60,388.00 L 657.20,388.00 L 660.80,388.00 L 664.40,388.00 L 668.00,388.00 L 671.60,388.00 L 675.20,388.00 L 678.80,388.00 L 682.40,388.00 L 686.00,388.00 L 689.60,388.00 L 693.20,388.00 L 696.80,388.00 L 700.40,388.00 L 704.00,388.00 L 707.60,388.00 L 711.20,388.00 L 714.80,388.00 L 718.40,388.00 L 722.00,388.00 L 725.60,388.00 L 729.20,388.00 L 732.80,388.00 L 736.40,388.00 L 740.00,388.00 L 743.60,388.00 L 747.20,388.00 L 750.80,388.00 L 754.40,388.00 L 758.00,388.00 L 761.60,388.00 L 765.20,388.00 L 768.80,388.00 L 772.40,388.00 L 776.00,388.00 L 779.60,388.00 L 783.20,388.00 L 786.80,388.00 L 790.40,388.00 L 794.00,388.00 L 797.60,388.00 L 801.20,388.00 L 804.80,388.00 L 808.40,388.00 L 812.00,388.00 L 815.60,388.00 L 819.20,388.00 L 822.80,388.00 L 826.40,388.00 L 830.00,388.00 L 833.60,388.00 L 837.20,388.00 L 840.80,388.00 L 844.40,388.00 L 848.00,388.00 L 851.60,388.00 L 855.20,388.00 L 858.80,388.00 L 862.40,388.00 L 866.00,388.00" fill="none" stroke="#10b981" stroke-width="4" stroke-linecap="round"/>
<line x1="402.11" y1="388.00" x2="402.11" y2="147.44" stroke="#10b981" stroke-width="1.2" stroke-dasharray="5 5" opacity="0.7"/>
<rect x="636" y="54" width="120" height="92" rx="8" fill="white" stroke="#cbd5e1"/>
<line x1="650" y1="74" x2="680" y2="74" stroke="#2563eb" stroke-width="4" stroke-linecap="round"/>
<text class="legend" x="690" y="78">Arm A</text>
<line x1="650" y1="101" x2="680" y2="101" stroke="#f59e0b" stroke-width="4" stroke-linecap="round"/>
<text class="legend" x="690" y="105">Arm B</text>
<line x1="650" y1="128" x2="680" y2="128" stroke="#10b981" stroke-width="4" stroke-linecap="round"/>
<text class="legend" x="690" y="132">Arm C</text>
</svg>