<?xml version="1.0" encoding="utf-8" standalone="no"?>
<!DOCTYPE svg PUBLIC "-//W3C//DTD SVG 1.1//EN"
  "http://www.w3.org/Graphics/SVG/1.1/DTD/svg11.dtd">
<svg xmlns:xlink="http://www.w3.org/1999/xlink" width="1152pt" height="648pt" viewBox="0 0 1152 648" xmlns="http://www.w3.org/2000/svg" version="1.1">
 <metadata>
  <rdf:RDF xmlns:dc="http://purl.org/dc/elements/1.1/" xmlns:cc="http://creativecommons.org/ns#" xmlns:rdf="http://www.w3.org/1999/02/22-rdf-syntax-ns#">
   <cc:Work>
    <dc:type rdf:resource="http://purl.org/dc/dcmitype/StillImage"/>
    <dc:date>2026-09-19T08:38:32.045884</dc:date>
    <dc:format>image/svg+xml</dc:format>
    <dc:creator>
     <cc:Agent>
      <dc:title>Matplotlib v3.10.6, https://matplotlib.org/</dc:title>
     </cc:Agent>
    </dc:creator>
   </cc:Work>
  </rdf:RDF>
 </metadata>
 <defs>
  <style type="text/css">*{stroke-linejoin: round; stroke-linecap: butt}</style>
 </defs>
 <g id="figure_1">
  <g id="patch_1">
   <path d="M 0 648 
L 1152 648 
L 1152 0 
L 0 0 
z
" style="fill: #f7f2e8"/>
  </g>
  <g id="axes_1">
   <g id="patch_2">
    <path d="M 51.84 425.52 
L 261.36 425.52 
Q 267.12 425.52 267.12 419.76 
L 267.12 156.24 
Q 267.12 150.48 261.36 150.48 
L 51.84 150.48 
Q 46.08 150.48 46.08 156.24 
L 46.08 419.76 
Q 46.08 425.52 51.84 425.52 
z
" clip-path="url(#p4a54e6e4d6)" style="fill: #eee7d9; stroke: #283a40; stroke-width: 1.3; stroke-linejoin: miter"/>
   </g>
   <g id="patch_3">
    <path d="M 296.64 425.52 
L 754.56 425.52 
Q 760.32 425.52 760.32 419.76 
L 760.32 156.24 
Q 760.32 150.48 754.56 150.48 
L 296.64 150.48 
Q 290.88 150.48 290.88 156.24 
L 290.88 419.76 
Q 290.88 425.52 296.64 425.52 
z
" clip-path="url(#p4a54e6e4d6)" style="fill: #fffcf5; stroke: #283a40; stroke-width: 1.3; stroke-linejoin: miter"/>
   </g>
   <g id="patch_4">
    <path d="M 308.16 248.4 
L 743.76 248.4 
L 743.76 206.64 
L 308.16 206.64 
z
" clip-path="url(#p4a54e6e4d6)" style="fill: #e6dfd1; stroke: #283a40; stroke-width: 0.6; stroke-linejoin: miter"/>
   </g>
   <g id="patch_5">
    <path d="M 308.16 289.44 
L 743.76 289.44 
L 743.76 249.12 
L 308.16 249.12 
z
" clip-path="url(#p4a54e6e4d6)" style="fill: #fffcf5; stroke: #e6dfd1; stroke-width: 0.8; stroke-linejoin: miter"/>
   </g>
   <g id="patch_6">
    <path d="M 308.16 331.2 
L 743.76 331.2 
L 743.76 290.88 
L 308.16 290.88 
z
" clip-path="url(#p4a54e6e4d6)" style="fill: #fffcf5; stroke: #e6dfd1; stroke-width: 0.8; stroke-linejoin: miter"/>
   </g>
   <g id="patch_7">
    <path d="M 308.16 372.96 
L 743.76 372.96 
L 743.76 332.64 
L 308.16 332.64 
z
" clip-path="url(#p4a54e6e4d6)" style="fill: #f7f2e8; stroke: #e6dfd1; stroke-width: 0.8; stroke-linejoin: miter"/>
   </g>
   <g id="patch_8">
    <path d="M 644.4 407.52 
L 735.12 407.52 
Q 740.88 407.52 740.88 401.76 
L 740.88 378.72 
Q 740.88 372.96 735.12 372.96 
L 644.4 372.96 
Q 638.64 372.96 638.64 378.72 
L 638.64 401.76 
Q 638.64 407.52 644.4 407.52 
z
" clip-path="url(#p4a54e6e4d6)" style="fill: #466a50; stroke: #466a50; stroke-width: 1.3; stroke-linejoin: miter"/>
   </g>
   <g id="patch_9">
    <path d="M 792.72 425.52 
L 1099.44 425.52 
Q 1105.2 425.52 1105.2 419.76 
L 1105.2 156.24 
Q 1105.2 150.48 1099.44 150.48 
L 792.72 150.48 
Q 786.96 150.48 786.96 156.24 
L 786.96 419.76 
Q 786.96 425.52 792.72 425.52 
z
" clip-path="url(#p4a54e6e4d6)" style="fill: #eaede5; stroke: #283a40; stroke-width: 1.3; stroke-linejoin: miter"/>
   </g>
   <g id="line2d_1">
    <defs>
     <path id="mf65d55ca6a" d="M 0 9 
C 2.386828 9 4.676219 8.051703 6.363961 6.363961 
C 8.051703 4.676219 9 2.386828 9 0 
C 9 -2.386828 8.051703 -4.676219 6.363961 -6.363961 
C 4.676219 -8.051703 2.386828 -9 0 -9 
C -2.386828 -9 -4.676219 -8.051703 -6.363961 -6.363961 
C -8.051703 -4.676219 -9 -2.386828 -9 0 
C -9 2.386828 -8.051703 4.676219 -6.363961 6.363961 
C -4.676219 8.051703 -2.386828 9 0 9 
z
" style="stroke: #466a50"/>
    </defs>
    <g clip-path="url(#p4a54e6e4d6)">
     <use xlink:href="#mf65d55ca6a" x="108" y="483.84" style="fill: #466a50; stroke: #466a50"/>
    </g>
   </g>
   <g id="line2d_2">
    <g clip-path="url(#p4a54e6e4d6)">
     <use xlink:href="#mf65d55ca6a" x="334.8" y="483.84" style="fill: #466a50; stroke: #466a50"/>
    </g>
   </g>
   <g id="line2d_3">
    <g clip-path="url(#p4a54e6e4d6)">
     <use xlink:href="#mf65d55ca6a" x="561.6" y="483.84" style="fill: #466a50; stroke: #466a50"/>
    </g>
   </g>
   <g id="line2d_4">
    <g clip-path="url(#p4a54e6e4d6)">
     <use xlink:href="#mf65d55ca6a" x="788.4" y="483.84" style="fill: #466a50; stroke: #466a50"/>
    </g>
   </g>
   <g id="line2d_5">
    <g clip-path="url(#p4a54e6e4d6)">
     <use xlink:href="#mf65d55ca6a" x="1015.2" y="483.84" style="fill: #466a50; stroke: #466a50"/>
    </g>
   </g>
   <g id="text_1">
    <text style="font-weight: 700; font-size: 29px; font-family: 'DejaVu Serif'; text-anchor: start; fill: #283a40" x="46.8" y="50.835469" transform="rotate(-0 46.8 50.835469)">A correct click is not a completed task</text>
   </g>
   <g id="text_2">
    <text style="font-size: 15px; font-family: 'DejaVu Sans'; text-anchor: start; fill: #3c657c" x="46.8" y="84.837656" transform="rotate(-0 46.8 84.837656)">Berkeley Advanced LLM Agents · Lecture 7 · Perception → action → evidence</text>
   </g>
   <g id="text_3">
    <text style="font-weight: 700; font-size: 20px; font-family: 'DejaVu Sans'; text-anchor: start; fill: #283a40" x="46.8" y="125.356875" transform="rotate(-0 46.8 125.356875)">GOAL  Add both receipts and save the updated ledger.</text>
   </g>
   <g id="text_4">
    <text style="font-weight: 700; font-size: 16px; font-family: 'DejaVu Sans'; text-anchor: start; fill: #3c657c" x="63.36" y="179.9175" transform="rotate(-0 63.36 179.9175)">SOURCE RECEIPTS</text>
   </g>
   <g id="text_5">
    <text style="font-size: 17px; font-family: 'DejaVu Sans'; text-anchor: start; fill: #283a40" x="64.8" y="221.717344" transform="rotate(-0 64.8 221.717344)">A   Supplies</text>
   </g>
   <g id="text_6">
    <text style="font-size: 25px; font-family: 'DejaVu Serif'; text-anchor: start; fill: #283a40" x="64.8" y="258.756094" transform="rotate(-0 64.8 258.756094)">$18.50</text>
   </g>
   <g id="text_7">
    <text style="font-size: 17px; font-family: 'DejaVu Sans'; text-anchor: start; fill: #283a40" x="64.8" y="303.797344" transform="rotate(-0 64.8 303.797344)">B   Transit</text>
   </g>
   <g id="text_8">
    <text style="font-size: 25px; font-family: 'DejaVu Serif'; text-anchor: start; fill: #283a40" x="64.8" y="340.836094" transform="rotate(-0 64.8 340.836094)">$26.40</text>
   </g>
   <g id="text_9">
    <text style="font-weight: 700; font-size: 15px; font-family: 'DejaVu Sans'; text-anchor: start; fill: #283a40" x="64.8" y="391.557656" transform="rotate(-0 64.8 391.557656)">Expected total: $44.90</text>
   </g>
   <g id="text_10">
    <text style="font-weight: 700; font-size: 17px; font-family: 'DejaVu Sans'; text-anchor: start; fill: #283a40" x="309.6" y="180.677344" transform="rotate(-0 309.6 180.677344)">ledger.xlsx</text>
   </g>
   <g id="text_11">
    <text style="font-weight: 700; font-size: 16px; font-family: 'DejaVu Sans'; text-anchor: start; fill: #283a40" x="322.56" y="229.5975" transform="rotate(-0 322.56 229.5975)">Item</text>
   </g>
   <g id="text_12">
    <text style="font-weight: 700; font-size: 16px; font-family: 'DejaVu Sans'; text-anchor: start; fill: #283a40" x="624.96" y="229.5975" transform="rotate(-0 624.96 229.5975)">Amount</text>
   </g>
   <g id="text_13">
    <text style="font-size: 17px; font-family: 'DejaVu Sans'; text-anchor: start; fill: #283a40" x="322.56" y="267.797344" transform="rotate(-0 322.56 267.797344)">Supplies</text>
   </g>
   <g id="text_14">
    <text style="font-size: 17px; font-family: 'DejaVu Sans'; text-anchor: start; fill: #283a40" x="640.8" y="267.797344" transform="rotate(-0 640.8 267.797344)">18.50</text>
   </g>
   <g id="text_15">
    <text style="font-size: 17px; font-family: 'DejaVu Sans'; text-anchor: start; fill: #283a40" x="322.56" y="309.557344" transform="rotate(-0 322.56 309.557344)">Transit</text>
   </g>
   <g id="text_16">
    <text style="font-size: 17px; font-family: 'DejaVu Sans'; text-anchor: start; fill: #283a40" x="640.8" y="309.557344" transform="rotate(-0 640.8 309.557344)">26.40</text>
   </g>
   <g id="text_17">
    <text style="font-weight: 700; font-size: 17px; font-family: 'DejaVu Sans'; text-anchor: start; fill: #283a40" x="322.56" y="351.317344" transform="rotate(-0 322.56 351.317344)">Total</text>
   </g>
   <g id="text_18">
    <text style="font-weight: 700; font-size: 17px; font-family: 'DejaVu Sans'; text-anchor: start; fill: #283a40" x="640.8" y="351.317344" transform="rotate(-0 640.8 351.317344)">44.90</text>
   </g>
   <g id="text_19">
    <text style="font-size: 14px; font-family: 'DejaVu Sans'; text-anchor: middle; fill: #ffffff" x="689.76" y="390.077812" transform="rotate(-0 689.76 390.077812)">Saved</text>
   </g>
   <g id="text_20">
    <text style="font-weight: 700; font-size: 15px; font-family: 'DejaVu Sans'; text-anchor: start; fill: #466a50" x="806.4" y="180.597656" transform="rotate(-0 806.4 180.597656)">05  Check the persisted file</text>
   </g>
   <g id="text_21">
    <text style="font-size: 17px; font-family: 'DejaVu Sans'; fill: #283a40" transform="translate(806.4 238.997344)">Read saved rows and total.</text>
    <text style="font-size: 17px; font-family: 'DejaVu Sans'; fill: #283a40" transform="translate(806.4 264.492297)">Compare with the task goal.</text>
   </g>
   <g id="text_22">
    <text style="font-weight: 700; font-size: 14px; font-family: 'DejaVu Sans'; text-anchor: start; fill: #3c657c" x="806.4" y="329.597812" transform="rotate(-0 806.4 329.597812)">TASK EVIDENCE</text>
   </g>
   <g id="text_23">
    <text style="font-size: 16px; font-family: 'DejaVu Sans'; fill: #466a50" transform="translate(806.4 367.8375)">Two rows ✓   Total ✓</text>
    <text style="font-size: 16px; font-family: 'DejaVu Sans'; fill: #466a50" transform="translate(806.4 389.40125)">Saved artifact ✓</text>
   </g>
   <g id="text_24">
    <text style="font-size: 17px; font-family: 'DejaVu Sans'; text-anchor: middle; fill: #283a40" x="108" y="527.717344" transform="rotate(-0 108 527.717344)">Observe</text>
   </g>
   <g id="patch_10">
    <path d="M 131.597479 483.84 
Q 221.399782 483.84 308.742409 483.84 
" style="fill: none; stroke: #466a50; stroke-width: 2.2; stroke-linecap: round"/>
    <path d="M 302.742409 480.84 
L 308.742409 483.84 
L 302.742409 486.84 
" style="fill: none; stroke: #466a50; stroke-width: 2.2; stroke-linecap: round"/>
   </g>
   <g id="text_25">
    <text style="font-size: 17px; font-family: 'DejaVu Sans'; text-anchor: middle; fill: #283a40" x="334.8" y="527.717344" transform="rotate(-0 334.8 527.717344)">Enter A</text>
   </g>
   <g id="patch_11">
    <path d="M 358.397479 483.84 
Q 448.199782 483.84 535.542409 483.84 
" style="fill: none; stroke: #466a50; stroke-width: 2.2; stroke-linecap: round"/>
    <path d="M 529.542409 480.84 
L 535.542409 483.84 
L 529.542409 486.84 
" style="fill: none; stroke: #466a50; stroke-width: 2.2; stroke-linecap: round"/>
   </g>
   <g id="text_26">
    <text style="font-size: 17px; font-family: 'DejaVu Sans'; text-anchor: middle; fill: #283a40" x="561.6" y="527.717344" transform="rotate(-0 561.6 527.717344)">Enter B</text>
   </g>
   <g id="patch_12">
    <path d="M 585.197479 483.84 
Q 674.999782 483.84 762.342409 483.84 
" style="fill: none; stroke: #466a50; stroke-width: 2.2; stroke-linecap: round"/>
    <path d="M 756.342409 480.84 
L 762.342409 483.84 
L 756.342409 486.84 
" style="fill: none; stroke: #466a50; stroke-width: 2.2; stroke-linecap: round"/>
   </g>
   <g id="text_27">
    <text style="font-size: 17px; font-family: 'DejaVu Sans'; text-anchor: middle; fill: #283a40" x="788.4" y="527.717344" transform="rotate(-0 788.4 527.717344)">Save</text>
   </g>
   <g id="patch_13">
    <path d="M 811.997479 483.84 
Q 901.799782 483.84 989.142409 483.84 
" style="fill: none; stroke: #466a50; stroke-width: 2.2; stroke-linecap: round"/>
    <path d="M 983.142409 480.84 
L 989.142409 483.84 
L 983.142409 486.84 
" style="fill: none; stroke: #466a50; stroke-width: 2.2; stroke-linecap: round"/>
   </g>
   <g id="text_28">
    <text style="font-weight: 700; font-size: 17px; font-family: 'DejaVu Sans'; text-anchor: middle; fill: #283a40" x="1015.2" y="527.717344" transform="rotate(-0 1015.2 527.717344)">Verify</text>
   </g>
   <g id="text_29">
    <text style="font-weight: 700; font-size: 17px; font-family: 'DejaVu Sans'; text-anchor: start; fill: #283a40" x="46.8" y="598.997344" transform="rotate(-0 46.8 598.997344)">OSWorld evaluates the resulting state; it need not match one reference click sequence.</text>
   </g>
   <g id="text_30">
    <text style="font-size: 12px; font-family: 'DejaVu Sans'; text-anchor: start; fill: #283a40" x="46.8" y="629.038125" transform="rotate(-0 46.8 629.038125)">Constructed teaching example inspired by lecture slides 11–19. Animation shows state transitions, not benchmark performance.</text>
   </g>
  </g>
 </g>
 <defs>
  <clipPath id="p4a54e6e4d6">
   <rect x="0" y="0" width="1152" height="648"/>
  </clipPath>
 </defs>
</svg>
