<?xml version="1.0" encoding="utf-8" standalone="no"?>
<!DOCTYPE svg PUBLIC "-//W3C//DTD SVG 1.1//EN"
  "http://www.w3.org/Graphics/SVG/1.1/DTD/svg11.dtd">
<svg xmlns:xlink="http://www.w3.org/1999/xlink" width="1152pt" height="648pt" viewBox="0 0 1152 648" xmlns="http://www.w3.org/2000/svg" version="1.1">
 <metadata>
  <rdf:RDF xmlns:dc="http://purl.org/dc/elements/1.1/" xmlns:cc="http://creativecommons.org/ns#" xmlns:rdf="http://www.w3.org/1999/02/22-rdf-syntax-ns#">
   <cc:Work>
    <dc:type rdf:resource="http://purl.org/dc/dcmitype/StillImage"/>
    <dc:date>2026-09-20T18:09:54.319034</dc:date>
    <dc:format>image/svg+xml</dc:format>
    <dc:creator>
     <cc:Agent>
      <dc:title>Matplotlib v3.10.6, https://matplotlib.org/</dc:title>
     </cc:Agent>
    </dc:creator>
   </cc:Work>
  </rdf:RDF>
 </metadata>
 <defs>
  <style type="text/css">*{stroke-linejoin: round; stroke-linecap: butt}</style>
 </defs>
 <g id="figure_1">
  <g id="patch_1">
   <path d="M 0 648 
L 1152 648 
L 1152 0 
L 0 0 
z
" style="fill: #f7f1e5"/>
  </g>
  <g id="axes_1">
   <g id="patch_2">
    <path d="M 50.4 249.84 
L 352.8 249.84 
Q 361.44 249.84 361.44 241.2 
L 361.44 126 
Q 361.44 117.36 352.8 117.36 
L 50.4 117.36 
Q 41.76 117.36 41.76 126 
L 41.76 241.2 
Q 41.76 249.84 50.4 249.84 
z
" clip-path="url(#pd7a83f409f)" style="fill: #fffdf6; stroke: #365e78; stroke-width: 2.5; stroke-linejoin: miter"/>
   </g>
   <g id="patch_3">
    <path d="M 396 249.84 
L 1094.4 249.84 
Q 1103.04 249.84 1103.04 241.2 
L 1103.04 126 
Q 1103.04 117.36 1094.4 117.36 
L 396 117.36 
Q 387.36 117.36 387.36 126 
L 387.36 241.2 
Q 387.36 249.84 396 249.84 
z
" clip-path="url(#pd7a83f409f)" style="fill: #fffdf6; stroke: #365e78; stroke-width: 2.5; stroke-linejoin: miter"/>
   </g>
   <g id="patch_4">
    <path d="M 50.4 397.44 
L 352.8 397.44 
Q 361.44 397.44 361.44 388.8 
L 361.44 273.6 
Q 361.44 264.96 352.8 264.96 
L 50.4 264.96 
Q 41.76 264.96 41.76 273.6 
L 41.76 388.8 
Q 41.76 397.44 50.4 397.44 
z
" clip-path="url(#pd7a83f409f)" style="fill: #fffdf6; stroke: #526746; stroke-width: 2.5; stroke-linejoin: miter"/>
   </g>
   <g id="patch_5">
    <path d="M 396 397.44 
L 1094.4 397.44 
Q 1103.04 397.44 1103.04 388.8 
L 1103.04 273.6 
Q 1103.04 264.96 1094.4 264.96 
L 396 264.96 
Q 387.36 264.96 387.36 273.6 
L 387.36 388.8 
Q 387.36 397.44 396 397.44 
z
" clip-path="url(#pd7a83f409f)" style="fill: #fffdf6; stroke: #526746; stroke-width: 2.5; stroke-linejoin: miter"/>
   </g>
   <g id="patch_6">
    <path d="M 50.4 545.04 
L 352.8 545.04 
Q 361.44 545.04 361.44 536.4 
L 361.44 421.2 
Q 361.44 412.56 352.8 412.56 
L 50.4 412.56 
Q 41.76 412.56 41.76 421.2 
L 41.76 536.4 
Q 41.76 545.04 50.4 545.04 
z
" clip-path="url(#pd7a83f409f)" style="fill: #fffdf6; stroke: #984b38; stroke-width: 2.5; stroke-linejoin: miter"/>
   </g>
   <g id="patch_7">
    <path d="M 396 545.04 
L 1094.4 545.04 
Q 1103.04 545.04 1103.04 536.4 
L 1103.04 421.2 
Q 1103.04 412.56 1094.4 412.56 
L 396 412.56 
Q 387.36 412.56 387.36 421.2 
L 387.36 536.4 
Q 387.36 545.04 396 545.04 
z
" clip-path="url(#pd7a83f409f)" style="fill: #fffdf6; stroke: #984b38; stroke-width: 2.5; stroke-linejoin: miter"/>
   </g>
   <g id="text_1">
    <text style="font-weight: 700; font-size: 27px; font-family: 'DejaVu Sans'; text-anchor: start; fill: #302e2a" x="46.8" y="61.2" transform="rotate(-0 46.8 61.2)">The same formula, three programming contracts</text>
   </g>
   <g id="text_2">
    <text style="font-size: 15px; font-family: 'DejaVu Sans'; text-anchor: start; fill: #302e2a" x="46.8" y="97.2" transform="rotate(-0 46.8 97.2)">Historical lecture comparison · v₂ = exp(v₁), v₃ = v₂ + 1, v₄ = v₂v₃ · at v₁ = 0: (1, 2, 2)</text>
   </g>
   <g id="text_3">
    <text style="font-weight: 700; font-size: 17px; font-family: 'DejaVu Sans'; text-anchor: start; fill: #365e78" x="61.92" y="151.92" transform="rotate(-0 61.92 151.92)">Caffe 1.0</text>
   </g>
   <g id="text_4">
    <text style="font-size: 14px; font-family: 'DejaVu Sans'; text-anchor: start; fill: #302e2a" x="61.92" y="196.397812" transform="rotate(-0 61.92 196.397812)">Layer.forward / Layer.backward</text>
   </g>
   <g id="text_5">
    <text style="font-weight: 700; font-size: 17px; font-family: 'DejaVu Sans'; text-anchor: start; fill: #365e78" x="407.52" y="151.92" transform="rotate(-0 407.52 151.92)">What the interface lets you do</text>
   </g>
   <g id="text_6">
    <text style="font-size: 14px; font-family: 'DejaVu Sans'; fill: #302e2a" transform="translate(407.52 196.397812)">Implement each layer’s forward and local backward.</text>
    <text style="font-size: 14px; font-family: 'DejaVu Sans'; fill: #302e2a" transform="translate(407.52 216.329875)">Reuse activation buffers; execute layers in order.</text>
   </g>
   <g id="patch_8">
    <path d="M 362.002588 183.6 
Q 372.600283 183.6 380.738302 183.6 
" style="fill: none; stroke: #365e78; stroke-width: 2.2; stroke-linecap: round"/>
    <path d="M 374.738302 180.6 
L 380.738302 183.6 
L 374.738302 186.6 
" style="fill: none; stroke: #365e78; stroke-width: 2.2; stroke-linecap: round"/>
   </g>
   <g id="text_7">
    <text style="font-weight: 700; font-size: 17px; font-family: 'DejaVu Sans'; text-anchor: start; fill: #526746" x="61.92" y="299.52" transform="rotate(-0 61.92 299.52)">TensorFlow 1.0</text>
   </g>
   <g id="text_8">
    <text style="font-size: 14px; font-family: 'DejaVu Sans'; text-anchor: start; fill: #302e2a" x="61.92" y="343.997812" transform="rotate(-0 61.92 343.997812)">Declare graph → execute fetch</text>
   </g>
   <g id="text_9">
    <text style="font-weight: 700; font-size: 17px; font-family: 'DejaVu Sans'; text-anchor: start; fill: #526746" x="407.52" y="299.52" transform="rotate(-0 407.52 299.52)">What the interface lets you do</text>
   </g>
   <g id="text_10">
    <text style="font-size: 14px; font-family: 'DejaVu Sans'; fill: #302e2a" transform="translate(407.52 343.997812)">Define v₂, v₃, v₄ first; then request a value.</text>
    <text style="font-size: 14px; font-family: 'DejaVu Sans'; fill: #302e2a" transform="translate(407.52 363.929875)">Fetching only v₃ need not execute v₄.</text>
   </g>
   <g id="patch_9">
    <path d="M 362.002588 331.2 
Q 372.600283 331.2 380.738302 331.2 
" style="fill: none; stroke: #526746; stroke-width: 2.2; stroke-linecap: round"/>
    <path d="M 374.738302 328.2 
L 380.738302 331.2 
L 374.738302 334.2 
" style="fill: none; stroke: #526746; stroke-width: 2.2; stroke-linecap: round"/>
   </g>
   <g id="text_11">
    <text style="font-weight: 700; font-size: 17px; font-family: 'DejaVu Sans'; text-anchor: start; fill: #984b38" x="61.92" y="447.12" transform="rotate(-0 61.92 447.12)">Eager / define-by-run</text>
   </g>
   <g id="text_12">
    <text style="font-size: 14px; font-family: 'DejaVu Sans'; text-anchor: start; fill: #302e2a" x="61.92" y="491.597812" transform="rotate(-0 61.92 491.597812)">Execute operations → record graph</text>
   </g>
   <g id="text_13">
    <text style="font-weight: 700; font-size: 17px; font-family: 'DejaVu Sans'; text-anchor: start; fill: #984b38" x="407.52" y="447.12" transform="rotate(-0 407.52 447.12)">What the interface lets you do</text>
   </g>
   <g id="text_14">
    <text style="font-size: 14px; font-family: 'DejaVu Sans'; fill: #302e2a" transform="translate(407.52 491.597812)">Values appear as operations run; Python can branch.</text>
    <text style="font-size: 14px; font-family: 'DejaVu Sans'; fill: #302e2a" transform="translate(407.52 511.529875)">If v₄ &gt; 0.5: v₅ = 2v₄. Here v₅ = 4.</text>
   </g>
   <g id="patch_10">
    <path d="M 362.002588 478.8 
Q 372.600283 478.8 380.738302 478.8 
" style="fill: none; stroke: #984b38; stroke-width: 2.2; stroke-linecap: round"/>
    <path d="M 374.738302 475.8 
L 380.738302 478.8 
L 374.738302 481.8 
" style="fill: none; stroke: #984b38; stroke-width: 2.2; stroke-linecap: round"/>
   </g>
   <g id="text_15">
    <text style="font-size: 15px; font-family: 'DejaVu Sans'; text-anchor: start; fill: #302e2a" x="54" y="622.8" transform="rotate(-0 54 622.8)">Graph visibility creates optimization opportunities; eager execution eases debugging. Neither guarantees speed.</text>
   </g>
  </g>
 </g>
 <defs>
  <clipPath id="pd7a83f409f">
   <rect x="0" y="0" width="1152" height="648"/>
  </clipPath>
 </defs>
</svg>
