<?xml version="1.0" encoding="utf-8" standalone="no"?>
<!DOCTYPE svg PUBLIC "-//W3C//DTD SVG 1.1//EN"
  "http://www.w3.org/Graphics/SVG/1.1/DTD/svg11.dtd">
<svg xmlns:xlink="http://www.w3.org/1999/xlink" width="1152pt" height="648pt" viewBox="0 0 1152 648" xmlns="http://www.w3.org/2000/svg" version="1.1">
 <metadata>
  <rdf:RDF xmlns:dc="http://purl.org/dc/elements/1.1/" xmlns:cc="http://creativecommons.org/ns#" xmlns:rdf="http://www.w3.org/1999/02/22-rdf-syntax-ns#">
   <cc:Work>
    <dc:type rdf:resource="http://purl.org/dc/dcmitype/StillImage"/>
    <dc:date>2026-09-20T18:09:53.840549</dc:date>
    <dc:format>image/svg+xml</dc:format>
    <dc:creator>
     <cc:Agent>
      <dc:title>Matplotlib v3.10.6, https://matplotlib.org/</dc:title>
     </cc:Agent>
    </dc:creator>
   </cc:Work>
  </rdf:RDF>
 </metadata>
 <defs>
  <style type="text/css">*{stroke-linejoin: round; stroke-linecap: butt}</style>
 </defs>
 <g id="figure_1">
  <g id="patch_1">
   <path d="M 0 648 
L 1152 648 
L 1152 0 
L 0 0 
z
" style="fill: #f7f1e5"/>
  </g>
  <g id="axes_1">
   <g id="patch_2">
    <path d="M 230.4 399.6 
L 864 399.6 
Q 874.8 399.6 874.8 388.8 
L 874.8 183.6 
Q 874.8 172.8 864 172.8 
L 230.4 172.8 
Q 219.6 172.8 219.6 183.6 
L 219.6 388.8 
Q 219.6 399.6 230.4 399.6 
L 230.4 399.6 
z
" clip-path="url(#p7dc6280797)" style="fill: none; stroke-dasharray: 7.4,3.2; stroke-dashoffset: 0; stroke: #526746; stroke-width: 2; stroke-linejoin: miter"/>
   </g>
   <g id="patch_3">
    <path d="M 46.8 350.64 
L 190.8 350.64 
Q 199.44 350.64 199.44 342 
L 199.44 237.6 
Q 199.44 228.96 190.8 228.96 
L 46.8 228.96 
Q 38.16 228.96 38.16 237.6 
L 38.16 342 
Q 38.16 350.64 46.8 350.64 
z
" clip-path="url(#p7dc6280797)" style="fill: #fffdf6; stroke: #365e78; stroke-width: 2.5; stroke-linejoin: miter"/>
   </g>
   <g id="patch_4">
    <path d="M 255.6 350.64 
L 428.4 350.64 
Q 437.04 350.64 437.04 342 
L 437.04 237.6 
Q 437.04 228.96 428.4 228.96 
L 255.6 228.96 
Q 246.96 228.96 246.96 237.6 
L 246.96 342 
Q 246.96 350.64 255.6 350.64 
z
" clip-path="url(#p7dc6280797)" style="fill: #fffdf6; stroke: #365e78; stroke-width: 2.5; stroke-linejoin: miter"/>
   </g>
   <g id="patch_5">
    <path d="M 471.6 350.64 
L 615.6 350.64 
Q 624.24 350.64 624.24 342 
L 624.24 237.6 
Q 624.24 228.96 615.6 228.96 
L 471.6 228.96 
Q 462.96 228.96 462.96 237.6 
L 462.96 342 
Q 462.96 350.64 471.6 350.64 
z
" clip-path="url(#p7dc6280797)" style="fill: #fffdf6; stroke: #365e78; stroke-width: 2.5; stroke-linejoin: miter"/>
   </g>
   <g id="patch_6">
    <path d="M 658.8 350.64 
L 838.8 350.64 
Q 847.44 350.64 847.44 342 
L 847.44 237.6 
Q 847.44 228.96 838.8 228.96 
L 658.8 228.96 
Q 650.16 228.96 650.16 237.6 
L 650.16 342 
Q 650.16 350.64 658.8 350.64 
z
" clip-path="url(#p7dc6280797)" style="fill: #fffdf6; stroke: #365e78; stroke-width: 2.5; stroke-linejoin: miter"/>
   </g>
   <g id="patch_7">
    <path d="M 907.2 350.64 
L 1094.4 350.64 
Q 1103.04 350.64 1103.04 342 
L 1103.04 237.6 
Q 1103.04 228.96 1094.4 228.96 
L 907.2 228.96 
Q 898.56 228.96 898.56 237.6 
L 898.56 342 
Q 898.56 350.64 907.2 350.64 
z
" clip-path="url(#p7dc6280797)" style="fill: #fffdf6; stroke: #526746; stroke-width: 2.5; stroke-linejoin: miter"/>
   </g>
   <g id="patch_8">
    <path d="M 50.4 602.64 
L 1094.4 602.64 
Q 1103.04 602.64 1103.04 594 
L 1103.04 504 
Q 1103.04 495.36 1094.4 495.36 
L 50.4 495.36 
Q 41.76 495.36 41.76 504 
L 41.76 594 
Q 41.76 602.64 50.4 602.64 
z
" clip-path="url(#p7dc6280797)" style="fill: #fffdf6; stroke: #984b38; stroke-width: 2.5; stroke-linejoin: miter"/>
   </g>
   <g id="line2d_1">
    <path d="M 118.8 228.96 
L 118.8 126 
L 1000.8 126 
" clip-path="url(#p7dc6280797)" style="fill: none; stroke: #526746; stroke-width: 2; stroke-linecap: square"/>
   </g>
   <g id="line2d_2">
    <path d="M 993.6 356.4 
L 993.6 457.2 
L 118.8 457.2 
" clip-path="url(#p7dc6280797)" style="fill: none; stroke: #984b38; stroke-width: 2; stroke-linecap: square"/>
   </g>
   <g id="line2d_3">
    <path d="M 964.8 226.8 
L 964.8 158.4 
L 147.6 158.4 
" clip-path="url(#p7dc6280797)" style="fill: none; stroke: #984b38; stroke-width: 2; stroke-linecap: square"/>
   </g>
   <g id="text_1">
    <text style="font-weight: 700; font-size: 27px; font-family: 'DejaVu Sans'; text-anchor: start; fill: #302e2a" x="46.8" y="61.2" transform="rotate(-0 46.8 61.2)">A residual block needs a forward rule—not a new backward engine</text>
   </g>
   <g id="text_2">
    <text style="font-size: 15px; font-family: 'DejaVu Sans'; text-anchor: start; fill: #302e2a" x="46.8" y="97.2" transform="rotate(-0 46.8 97.2)">CMU 10-414/714 · Lecture 7 · Module composition above, tensor differentiation below</text>
   </g>
   <g id="text_3">
    <text style="font-weight: 700; font-size: 18px; font-family: 'DejaVu Sans'; text-anchor: start; fill: #526746" x="248.4" y="210.24" transform="rotate(-0 248.4 210.24)">Branch Module: F(x) = W₂ ReLU(W₁x)</text>
   </g>
   <g id="text_4">
    <text style="font-weight: 700; font-size: 17px; font-family: 'DejaVu Sans'; text-anchor: start; fill: #365e78" x="58.32" y="263.52" transform="rotate(-0 58.32 263.52)">Input x</text>
   </g>
   <g id="text_5">
    <text style="font-size: 14px; font-family: 'DejaVu Sans'; text-anchor: start; fill: #302e2a" x="58.32" y="307.997813" transform="rotate(-0 58.32 307.997813)">[1, 2]</text>
   </g>
   <g id="text_6">
    <text style="font-weight: 700; font-size: 17px; font-family: 'DejaVu Sans'; text-anchor: start; fill: #365e78" x="267.12" y="263.52" transform="rotate(-0 267.12 263.52)">Linear W₁</text>
   </g>
   <g id="text_7">
    <text style="font-size: 14px; font-family: 'DejaVu Sans'; text-anchor: start; fill: #302e2a" x="267.12" y="307.997813" transform="rotate(-0 267.12 307.997813)">[−1, 1.5]</text>
   </g>
   <g id="text_8">
    <text style="font-weight: 700; font-size: 17px; font-family: 'DejaVu Sans'; text-anchor: start; fill: #365e78" x="483.12" y="263.52" transform="rotate(-0 483.12 263.52)">ReLU</text>
   </g>
   <g id="text_9">
    <text style="font-size: 14px; font-family: 'DejaVu Sans'; text-anchor: start; fill: #302e2a" x="483.12" y="307.997813" transform="rotate(-0 483.12 307.997813)">[0, 1.5]</text>
   </g>
   <g id="text_10">
    <text style="font-weight: 700; font-size: 17px; font-family: 'DejaVu Sans'; text-anchor: start; fill: #365e78" x="670.32" y="263.52" transform="rotate(-0 670.32 263.52)">Linear W₂</text>
   </g>
   <g id="text_11">
    <text style="font-size: 14px; font-family: 'DejaVu Sans'; text-anchor: start; fill: #302e2a" x="670.32" y="307.997813" transform="rotate(-0 670.32 307.997813)">[3, 1.5]</text>
   </g>
   <g id="text_12">
    <text style="font-weight: 700; font-size: 17px; font-family: 'DejaVu Sans'; text-anchor: start; fill: #526746" x="918.72" y="263.52" transform="rotate(-0 918.72 263.52)">Add → y</text>
   </g>
   <g id="text_13">
    <text style="font-size: 14px; font-family: 'DejaVu Sans'; text-anchor: start; fill: #302e2a" x="918.72" y="307.997813" transform="rotate(-0 918.72 307.997813)">[4, 3.5]</text>
   </g>
   <g id="patch_9">
    <path d="M 201.441665 291.6 
Q 222.121823 291.6 240.342306 291.6 
" style="fill: none; stroke: #365e78; stroke-width: 2.2; stroke-linecap: round"/>
    <path d="M 234.342306 288.6 
L 240.342306 291.6 
L 234.342306 294.6 
" style="fill: none; stroke: #365e78; stroke-width: 2.2; stroke-linecap: round"/>
   </g>
   <g id="patch_10">
    <path d="M 439.759687 291.6 
Q 449.279453 291.6 456.339544 291.6 
" style="fill: none; stroke: #365e78; stroke-width: 2.2; stroke-linecap: round"/>
    <path d="M 450.339544 288.6 
L 456.339544 291.6 
L 450.339544 294.6 
" style="fill: none; stroke: #365e78; stroke-width: 2.2; stroke-linecap: round"/>
   </g>
   <g id="patch_11">
    <path d="M 627.682588 291.6 
Q 636.841792 291.6 643.541322 291.6 
" style="fill: none; stroke: #365e78; stroke-width: 2.2; stroke-linecap: round"/>
    <path d="M 637.541322 288.6 
L 643.541322 291.6 
L 637.541322 294.6 
" style="fill: none; stroke: #365e78; stroke-width: 2.2; stroke-linecap: round"/>
   </g>
   <g id="patch_12">
    <path d="M 850.159204 291.6 
Q 872.279092 291.6 891.939304 291.6 
" style="fill: none; stroke: #365e78; stroke-width: 2.2; stroke-linecap: round"/>
    <path d="M 885.939304 288.6 
L 891.939304 291.6 
L 885.939304 294.6 
" style="fill: none; stroke: #365e78; stroke-width: 2.2; stroke-linecap: round"/>
   </g>
   <g id="patch_13">
    <path d="M 1000.8 128.002588 
Q 1000.8 176.401802 1000.8 222.341342 
" style="fill: none; stroke: #526746; stroke-width: 2.2; stroke-linecap: round"/>
    <path d="M 1003.8 216.341342 
L 1000.8 222.341342 
L 997.8 216.341342 
" style="fill: none; stroke: #526746; stroke-width: 2.2; stroke-linecap: round"/>
   </g>
   <g id="text_14">
    <text style="font-size: 14px; font-family: 'DejaVu Sans'; text-anchor: start; fill: #526746" x="475.2" y="118.8" transform="rotate(-0 475.2 118.8)">identity shortcut</text>
   </g>
   <g id="text_15">
    <text style="font-size: 15px; font-family: 'DejaVu Sans'; text-anchor: start; fill: #302e2a" x="208.8" y="414" transform="rotate(-0 208.8 414)">W₁ = [[1, −1], [0.5, 0.5]]       W₂ = [[1, 2], [−1, 1]]       x, y ∈ ℝ²</text>
   </g>
   <g id="patch_14">
    <path d="M 118.8 455.198489 
Q 118.8 405.719032 118.8 358.699249 
" style="fill: none; stroke: #984b38; stroke-width: 2.2; stroke-linecap: round"/>
    <path d="M 115.8 364.699249 
L 118.8 358.699249 
L 121.8 364.699249 
" style="fill: none; stroke: #984b38; stroke-width: 2.2; stroke-linecap: round"/>
   </g>
   <g id="text_16">
    <text style="font-size: 14px; font-family: 'DejaVu Sans'; text-anchor: start; fill: #984b38" x="432" y="483.84" transform="rotate(-0 432 483.84)">branch contribution: W₁ᵀ D W₂ᵀ g</text>
   </g>
   <g id="patch_15">
    <path d="M 147.6 160.399731 
Q 147.6 192.600863 147.6 222.342319 
" style="fill: none; stroke: #984b38; stroke-width: 2.2; stroke-linecap: round"/>
    <path d="M 150.6 216.342319 
L 147.6 222.342319 
L 144.6 216.342319 
" style="fill: none; stroke: #984b38; stroke-width: 2.2; stroke-linecap: round"/>
   </g>
   <g id="text_17">
    <text style="font-size: 14px; font-family: 'DejaVu Sans'; text-anchor: start; fill: #984b38" x="309.6" y="150.48" transform="rotate(-0 309.6 150.48)">shortcut carries g unchanged</text>
   </g>
   <g id="text_18">
    <text style="font-weight: 700; font-size: 17px; font-family: 'DejaVu Sans'; text-anchor: start; fill: #984b38" x="61.92" y="529.92" transform="rotate(-0 61.92 529.92)">8 / Accumulate at x</text>
   </g>
   <g id="text_19">
    <text style="font-size: 14px; font-family: 'DejaVu Sans'; text-anchor: start; fill: #302e2a" x="61.92" y="574.397812" transform="rotate(-0 61.92 574.397812)">Autodiff adds both path contributions.</text>
   </g>
   <g id="text_20">
    <text style="font-weight: 700; font-size: 19px; font-family: 'DejaVu Sans'; text-anchor: start; fill: #984b38" x="64.8" y="622.08" transform="rotate(-0 64.8 622.08)">∂L/∂x = [4, 3.5] + [5.75, 5.75] = [9.75, 9.25]</text>
   </g>
  </g>
 </g>
 <defs>
  <clipPath id="p7dc6280797">
   <rect x="0" y="0" width="1152" height="648"/>
  </clipPath>
 </defs>
</svg>
