<?xml version="1.0" encoding="utf-8" standalone="no"?>
<!DOCTYPE svg PUBLIC "-//W3C//DTD SVG 1.1//EN"
  "http://www.w3.org/Graphics/SVG/1.1/DTD/svg11.dtd">
<svg xmlns:xlink="http://www.w3.org/1999/xlink" width="1152pt" height="648pt" viewBox="0 0 1152 648" xmlns="http://www.w3.org/2000/svg" version="1.1">
 <metadata>
  <rdf:RDF xmlns:dc="http://purl.org/dc/elements/1.1/" xmlns:cc="http://creativecommons.org/ns#" xmlns:rdf="http://www.w3.org/1999/02/22-rdf-syntax-ns#">
   <cc:Work>
    <dc:type rdf:resource="http://purl.org/dc/dcmitype/StillImage"/>
    <dc:date>2026-09-30T11:03:48.844940</dc:date>
    <dc:format>image/svg+xml</dc:format>
    <dc:creator>
     <cc:Agent>
      <dc:title>Matplotlib v3.9.4, https://matplotlib.org/</dc:title>
     </cc:Agent>
    </dc:creator>
   </cc:Work>
  </rdf:RDF>
 </metadata>
 <defs>
  <style type="text/css">*{stroke-linejoin: round; stroke-linecap: butt}</style>
 </defs>
 <g id="figure_1">
  <g id="patch_1">
   <path d="M 0 648 
L 1152 648 
L 1152 0 
L 0 0 
z
" style="fill: #f7f3e9"/>
  </g>
  <g id="axes_1">
   <g id="patch_2">
    <path d="M 80.64 492.48 
L 460.373333 492.48 
L 460.373333 142.56 
L 80.64 142.56 
z
" style="fill: #f7f3e9"/>
   </g>
   <g id="matplotlib.axis_1">
    <g id="xtick_1">
     <g id="line2d_1">
      <path d="M 80.64 492.48 
L 80.64 142.56 
" clip-path="url(#p123ead7eae)" style="fill: none; stroke: #52635d; stroke-opacity: 0.22; stroke-width: 0.8; stroke-linecap: square"/>
     </g>
     <g id="line2d_2">
      <defs>
       <path id="md0fe6fa964" d="M 0 0 
L 0 3.5 
" style="stroke: #24312e; stroke-width: 0.8"/>
      </defs>
      <g>
       <use xlink:href="#md0fe6fa964" x="80.64" y="492.48" style="fill: #24312e; stroke: #24312e; stroke-width: 0.8"/>
      </g>
     </g>
     <g id="text_1">
      <text style="fill: #24312e; font: 14px 'DejaVu Sans'; text-anchor: middle" x="80.64" y="510.117813" transform="rotate(-0 80.64 510.117813)">3</text>
     </g>
    </g>
    <g id="xtick_2">
     <g id="line2d_3">
      <path d="M 128.106667 492.48 
L 128.106667 142.56 
" clip-path="url(#p123ead7eae)" style="fill: none; stroke: #52635d; stroke-opacity: 0.22; stroke-width: 0.8; stroke-linecap: square"/>
     </g>
     <g id="line2d_4">
      <g>
       <use xlink:href="#md0fe6fa964" x="128.106667" y="492.48" style="fill: #24312e; stroke: #24312e; stroke-width: 0.8"/>
      </g>
     </g>
     <g id="text_2">
      <text style="fill: #24312e; font: 14px 'DejaVu Sans'; text-anchor: middle" x="128.106667" y="510.117813" transform="rotate(-0 128.106667 510.117813)">4</text>
     </g>
    </g>
    <g id="xtick_3">
     <g id="line2d_5">
      <path d="M 175.573333 492.48 
L 175.573333 142.56 
" clip-path="url(#p123ead7eae)" style="fill: none; stroke: #52635d; stroke-opacity: 0.22; stroke-width: 0.8; stroke-linecap: square"/>
     </g>
     <g id="line2d_6">
      <g>
       <use xlink:href="#md0fe6fa964" x="175.573333" y="492.48" style="fill: #24312e; stroke: #24312e; stroke-width: 0.8"/>
      </g>
     </g>
     <g id="text_3">
      <text style="fill: #24312e; font: 14px 'DejaVu Sans'; text-anchor: middle" x="175.573333" y="510.117813" transform="rotate(-0 175.573333 510.117813)">5</text>
     </g>
    </g>
    <g id="xtick_4">
     <g id="line2d_7">
      <path d="M 223.04 492.48 
L 223.04 142.56 
" clip-path="url(#p123ead7eae)" style="fill: none; stroke: #52635d; stroke-opacity: 0.22; stroke-width: 0.8; stroke-linecap: square"/>
     </g>
     <g id="line2d_8">
      <g>
       <use xlink:href="#md0fe6fa964" x="223.04" y="492.48" style="fill: #24312e; stroke: #24312e; stroke-width: 0.8"/>
      </g>
     </g>
     <g id="text_4">
      <text style="fill: #24312e; font: 14px 'DejaVu Sans'; text-anchor: middle" x="223.04" y="510.117813" transform="rotate(-0 223.04 510.117813)">6</text>
     </g>
    </g>
    <g id="xtick_5">
     <g id="line2d_9">
      <path d="M 270.506667 492.48 
L 270.506667 142.56 
" clip-path="url(#p123ead7eae)" style="fill: none; stroke: #52635d; stroke-opacity: 0.22; stroke-width: 0.8; stroke-linecap: square"/>
     </g>
     <g id="line2d_10">
      <g>
       <use xlink:href="#md0fe6fa964" x="270.506667" y="492.48" style="fill: #24312e; stroke: #24312e; stroke-width: 0.8"/>
      </g>
     </g>
     <g id="text_5">
      <text style="fill: #24312e; font: 14px 'DejaVu Sans'; text-anchor: middle" x="270.506667" y="510.117813" transform="rotate(-0 270.506667 510.117813)">7</text>
     </g>
    </g>
    <g id="xtick_6">
     <g id="line2d_11">
      <path d="M 317.973333 492.48 
L 317.973333 142.56 
" clip-path="url(#p123ead7eae)" style="fill: none; stroke: #52635d; stroke-opacity: 0.22; stroke-width: 0.8; stroke-linecap: square"/>
     </g>
     <g id="line2d_12">
      <g>
       <use xlink:href="#md0fe6fa964" x="317.973333" y="492.48" style="fill: #24312e; stroke: #24312e; stroke-width: 0.8"/>
      </g>
     </g>
     <g id="text_6">
      <text style="fill: #24312e; font: 14px 'DejaVu Sans'; text-anchor: middle" x="317.973333" y="510.117813" transform="rotate(-0 317.973333 510.117813)">8</text>
     </g>
    </g>
    <g id="xtick_7">
     <g id="line2d_13">
      <path d="M 365.44 492.48 
L 365.44 142.56 
" clip-path="url(#p123ead7eae)" style="fill: none; stroke: #52635d; stroke-opacity: 0.22; stroke-width: 0.8; stroke-linecap: square"/>
     </g>
     <g id="line2d_14">
      <g>
       <use xlink:href="#md0fe6fa964" x="365.44" y="492.48" style="fill: #24312e; stroke: #24312e; stroke-width: 0.8"/>
      </g>
     </g>
     <g id="text_7">
      <text style="fill: #24312e; font: 14px 'DejaVu Sans'; text-anchor: middle" x="365.44" y="510.117813" transform="rotate(-0 365.44 510.117813)">9</text>
     </g>
    </g>
    <g id="xtick_8">
     <g id="line2d_15">
      <path d="M 412.906667 492.48 
L 412.906667 142.56 
" clip-path="url(#p123ead7eae)" style="fill: none; stroke: #52635d; stroke-opacity: 0.22; stroke-width: 0.8; stroke-linecap: square"/>
     </g>
     <g id="line2d_16">
      <g>
       <use xlink:href="#md0fe6fa964" x="412.906667" y="492.48" style="fill: #24312e; stroke: #24312e; stroke-width: 0.8"/>
      </g>
     </g>
     <g id="text_8">
      <text style="fill: #24312e; font: 14px 'DejaVu Sans'; text-anchor: middle" x="412.906667" y="510.117813" transform="rotate(-0 412.906667 510.117813)">10</text>
     </g>
    </g>
    <g id="xtick_9">
     <g id="line2d_17">
      <path d="M 460.373333 492.48 
L 460.373333 142.56 
" clip-path="url(#p123ead7eae)" style="fill: none; stroke: #52635d; stroke-opacity: 0.22; stroke-width: 0.8; stroke-linecap: square"/>
     </g>
     <g id="line2d_18">
      <g>
       <use xlink:href="#md0fe6fa964" x="460.373333" y="492.48" style="fill: #24312e; stroke: #24312e; stroke-width: 0.8"/>
      </g>
     </g>
     <g id="text_9">
      <text style="fill: #24312e; font: 14px 'DejaVu Sans'; text-anchor: middle" x="460.373333" y="510.117813" transform="rotate(-0 460.373333 510.117813)">11</text>
     </g>
    </g>
    <g id="text_10">
     <!-- $\theta$ -->
     <g style="fill: #24312e" transform="translate(266.166667 527.667187)">
      <text>
       <tspan style="font: oblique 14px 'DejaVu Sans'" x="0" y="-0.25">θ</tspan>
      </text>
     </g>
    </g>
   </g>
   <g id="matplotlib.axis_2">
    <g id="ytick_1">
     <g id="line2d_19">
      <path d="M 80.64 492.48 
L 460.373333 492.48 
" clip-path="url(#p123ead7eae)" style="fill: none; stroke: #52635d; stroke-opacity: 0.22; stroke-width: 0.8; stroke-linecap: square"/>
     </g>
     <g id="line2d_20">
      <defs>
       <path id="m66942d43a0" d="M 0 0 
L -3.5 0 
" style="stroke: #24312e; stroke-width: 0.8"/>
      </defs>
      <g>
       <use xlink:href="#m66942d43a0" x="80.64" y="492.48" style="fill: #24312e; stroke: #24312e; stroke-width: 0.8"/>
      </g>
     </g>
     <g id="text_11">
      <text style="fill: #24312e; font: 14px 'DejaVu Sans'; text-anchor: end" x="73.64" y="497.798906" transform="rotate(-0 73.64 497.798906)">0.000</text>
     </g>
    </g>
    <g id="ytick_2">
     <g id="line2d_21">
      <path d="M 80.64 452.716364 
L 460.373333 452.716364 
" clip-path="url(#p123ead7eae)" style="fill: none; stroke: #52635d; stroke-opacity: 0.22; stroke-width: 0.8; stroke-linecap: square"/>
     </g>
     <g id="line2d_22">
      <g>
       <use xlink:href="#m66942d43a0" x="80.64" y="452.716364" style="fill: #24312e; stroke: #24312e; stroke-width: 0.8"/>
      </g>
     </g>
     <g id="text_12">
      <text style="fill: #24312e; font: 14px 'DejaVu Sans'; text-anchor: end" x="73.64" y="458.03527" transform="rotate(-0 73.64 458.03527)">0.025</text>
     </g>
    </g>
    <g id="ytick_3">
     <g id="line2d_23">
      <path d="M 80.64 412.952727 
L 460.373333 412.952727 
" clip-path="url(#p123ead7eae)" style="fill: none; stroke: #52635d; stroke-opacity: 0.22; stroke-width: 0.8; stroke-linecap: square"/>
     </g>
     <g id="line2d_24">
      <g>
       <use xlink:href="#m66942d43a0" x="80.64" y="412.952727" style="fill: #24312e; stroke: #24312e; stroke-width: 0.8"/>
      </g>
     </g>
     <g id="text_13">
      <text style="fill: #24312e; font: 14px 'DejaVu Sans'; text-anchor: end" x="73.64" y="418.271634" transform="rotate(-0 73.64 418.271634)">0.050</text>
     </g>
    </g>
    <g id="ytick_4">
     <g id="line2d_25">
      <path d="M 80.64 373.189091 
L 460.373333 373.189091 
" clip-path="url(#p123ead7eae)" style="fill: none; stroke: #52635d; stroke-opacity: 0.22; stroke-width: 0.8; stroke-linecap: square"/>
     </g>
     <g id="line2d_26">
      <g>
       <use xlink:href="#m66942d43a0" x="80.64" y="373.189091" style="fill: #24312e; stroke: #24312e; stroke-width: 0.8"/>
      </g>
     </g>
     <g id="text_14">
      <text style="fill: #24312e; font: 14px 'DejaVu Sans'; text-anchor: end" x="73.64" y="378.507997" transform="rotate(-0 73.64 378.507997)">0.075</text>
     </g>
    </g>
    <g id="ytick_5">
     <g id="line2d_27">
      <path d="M 80.64 333.425455 
L 460.373333 333.425455 
" clip-path="url(#p123ead7eae)" style="fill: none; stroke: #52635d; stroke-opacity: 0.22; stroke-width: 0.8; stroke-linecap: square"/>
     </g>
     <g id="line2d_28">
      <g>
       <use xlink:href="#m66942d43a0" x="80.64" y="333.425455" style="fill: #24312e; stroke: #24312e; stroke-width: 0.8"/>
      </g>
     </g>
     <g id="text_15">
      <text style="fill: #24312e; font: 14px 'DejaVu Sans'; text-anchor: end" x="73.64" y="338.744361" transform="rotate(-0 73.64 338.744361)">0.100</text>
     </g>
    </g>
    <g id="ytick_6">
     <g id="line2d_29">
      <path d="M 80.64 293.661818 
L 460.373333 293.661818 
" clip-path="url(#p123ead7eae)" style="fill: none; stroke: #52635d; stroke-opacity: 0.22; stroke-width: 0.8; stroke-linecap: square"/>
     </g>
     <g id="line2d_30">
      <g>
       <use xlink:href="#m66942d43a0" x="80.64" y="293.661818" style="fill: #24312e; stroke: #24312e; stroke-width: 0.8"/>
      </g>
     </g>
     <g id="text_16">
      <text style="fill: #24312e; font: 14px 'DejaVu Sans'; text-anchor: end" x="73.64" y="298.980724" transform="rotate(-0 73.64 298.980724)">0.125</text>
     </g>
    </g>
    <g id="ytick_7">
     <g id="line2d_31">
      <path d="M 80.64 253.898182 
L 460.373333 253.898182 
" clip-path="url(#p123ead7eae)" style="fill: none; stroke: #52635d; stroke-opacity: 0.22; stroke-width: 0.8; stroke-linecap: square"/>
     </g>
     <g id="line2d_32">
      <g>
       <use xlink:href="#m66942d43a0" x="80.64" y="253.898182" style="fill: #24312e; stroke: #24312e; stroke-width: 0.8"/>
      </g>
     </g>
     <g id="text_17">
      <text style="fill: #24312e; font: 14px 'DejaVu Sans'; text-anchor: end" x="73.64" y="259.217088" transform="rotate(-0 73.64 259.217088)">0.150</text>
     </g>
    </g>
    <g id="ytick_8">
     <g id="line2d_33">
      <path d="M 80.64 214.134545 
L 460.373333 214.134545 
" clip-path="url(#p123ead7eae)" style="fill: none; stroke: #52635d; stroke-opacity: 0.22; stroke-width: 0.8; stroke-linecap: square"/>
     </g>
     <g id="line2d_34">
      <g>
       <use xlink:href="#m66942d43a0" x="80.64" y="214.134545" style="fill: #24312e; stroke: #24312e; stroke-width: 0.8"/>
      </g>
     </g>
     <g id="text_18">
      <text style="fill: #24312e; font: 14px 'DejaVu Sans'; text-anchor: end" x="73.64" y="219.453452" transform="rotate(-0 73.64 219.453452)">0.175</text>
     </g>
    </g>
    <g id="ytick_9">
     <g id="line2d_35">
      <path d="M 80.64 174.370909 
L 460.373333 174.370909 
" clip-path="url(#p123ead7eae)" style="fill: none; stroke: #52635d; stroke-opacity: 0.22; stroke-width: 0.8; stroke-linecap: square"/>
     </g>
     <g id="line2d_36">
      <g>
       <use xlink:href="#m66942d43a0" x="80.64" y="174.370909" style="fill: #24312e; stroke: #24312e; stroke-width: 0.8"/>
      </g>
     </g>
     <g id="text_19">
      <text style="fill: #24312e; font: 14px 'DejaVu Sans'; text-anchor: end" x="73.64" y="179.689815" transform="rotate(-0 73.64 179.689815)">0.200</text>
     </g>
    </g>
    <g id="text_20">
     <text style="fill: #24312e; font: 14px 'DejaVu Sans'; text-anchor: middle" x="26.649063" y="317.52" transform="rotate(-90 26.649063 317.52)">Prior density</text>
    </g>
   </g>
   <g id="PolyCollection_1">
    <defs>
     <path id="m3dd1ddeb8f" d="M 128.106667 -155.52 
L 128.106667 -420.610909 
L 412.906667 -420.610909 
L 412.906667 -155.52 
L 412.906667 -155.52 
L 128.106667 -155.52 
z
" style="stroke: #3c665b; stroke-opacity: 0.15"/>
    </defs>
    <g clip-path="url(#p123ead7eae)">
     <use xlink:href="#m3dd1ddeb8f" x="0" y="648" style="fill: #3c665b; fill-opacity: 0.15; stroke: #3c665b; stroke-opacity: 0.15"/>
    </g>
   </g>
   <g id="line2d_37">
    <path d="M 80.64 492.48 
L 128.106667 492.48 
L 128.106667 227.389091 
L 412.906667 227.389091 
L 412.906667 492.48 
L 460.373333 492.48 
" clip-path="url(#p123ead7eae)" style="fill: none; stroke: #3c665b; stroke-width: 3; stroke-linecap: square"/>
   </g>
   <g id="line2d_38">
    <path d="M 270.506667 492.48 
L 270.506667 142.56 
" clip-path="url(#p123ead7eae)" style="fill: none; stroke-dasharray: 5.55,2.4; stroke-dashoffset: 0; stroke: #98533f; stroke-width: 1.5"/>
   </g>
   <g id="patch_3">
    <path d="M 80.64 492.48 
L 80.64 142.56 
" style="fill: none; stroke: #52635d; stroke-width: 0.8; stroke-linejoin: miter; stroke-linecap: square"/>
   </g>
   <g id="patch_4">
    <path d="M 80.64 492.48 
L 460.373333 492.48 
" style="fill: none; stroke: #52635d; stroke-width: 0.8; stroke-linejoin: miter; stroke-linecap: square"/>
   </g>
   <g id="text_21">
    <text style="fill: #24312e; font: 16.8px 'DejaVu Sans'; text-anchor: middle" x="270.506667" y="136.56" transform="rotate(-0 270.506667 136.56)">Before observing data</text>
   </g>
  </g>
  <g id="axes_2">
   <g id="patch_5">
    <path d="M 574.293333 492.48 
L 1105.92 492.48 
L 1105.92 142.56 
L 574.293333 142.56 
z
" style="fill: #f7f3e9"/>
   </g>
   <g id="matplotlib.axis_3">
    <g id="xtick_10">
     <g id="line2d_39">
      <path d="M 574.293333 492.48 
L 574.293333 142.56 
" clip-path="url(#p11fe058767)" style="fill: none; stroke: #52635d; stroke-opacity: 0.22; stroke-width: 0.8; stroke-linecap: square"/>
     </g>
     <g id="line2d_40">
      <g>
       <use xlink:href="#md0fe6fa964" x="574.293333" y="492.48" style="fill: #24312e; stroke: #24312e; stroke-width: 0.8"/>
      </g>
     </g>
     <g id="text_22">
      <text style="fill: #24312e; font: 14px 'DejaVu Sans'; text-anchor: middle" x="574.293333" y="510.117813" transform="rotate(-0 574.293333 510.117813)">3</text>
     </g>
    </g>
    <g id="xtick_11">
     <g id="line2d_41">
      <path d="M 640.746667 492.48 
L 640.746667 142.56 
" clip-path="url(#p11fe058767)" style="fill: none; stroke: #52635d; stroke-opacity: 0.22; stroke-width: 0.8; stroke-linecap: square"/>
     </g>
     <g id="line2d_42">
      <g>
       <use xlink:href="#md0fe6fa964" x="640.746667" y="492.48" style="fill: #24312e; stroke: #24312e; stroke-width: 0.8"/>
      </g>
     </g>
     <g id="text_23">
      <text style="fill: #24312e; font: 14px 'DejaVu Sans'; text-anchor: middle" x="640.746667" y="510.117813" transform="rotate(-0 640.746667 510.117813)">4</text>
     </g>
    </g>
    <g id="xtick_12">
     <g id="line2d_43">
      <path d="M 707.2 492.48 
L 707.2 142.56 
" clip-path="url(#p11fe058767)" style="fill: none; stroke: #52635d; stroke-opacity: 0.22; stroke-width: 0.8; stroke-linecap: square"/>
     </g>
     <g id="line2d_44">
      <g>
       <use xlink:href="#md0fe6fa964" x="707.2" y="492.48" style="fill: #24312e; stroke: #24312e; stroke-width: 0.8"/>
      </g>
     </g>
     <g id="text_24">
      <text style="fill: #24312e; font: 14px 'DejaVu Sans'; text-anchor: middle" x="707.2" y="510.117813" transform="rotate(-0 707.2 510.117813)">5</text>
     </g>
    </g>
    <g id="xtick_13">
     <g id="line2d_45">
      <path d="M 773.653333 492.48 
L 773.653333 142.56 
" clip-path="url(#p11fe058767)" style="fill: none; stroke: #52635d; stroke-opacity: 0.22; stroke-width: 0.8; stroke-linecap: square"/>
     </g>
     <g id="line2d_46">
      <g>
       <use xlink:href="#md0fe6fa964" x="773.653333" y="492.48" style="fill: #24312e; stroke: #24312e; stroke-width: 0.8"/>
      </g>
     </g>
     <g id="text_25">
      <text style="fill: #24312e; font: 14px 'DejaVu Sans'; text-anchor: middle" x="773.653333" y="510.117813" transform="rotate(-0 773.653333 510.117813)">6</text>
     </g>
    </g>
    <g id="xtick_14">
     <g id="line2d_47">
      <path d="M 840.106667 492.48 
L 840.106667 142.56 
" clip-path="url(#p11fe058767)" style="fill: none; stroke: #52635d; stroke-opacity: 0.22; stroke-width: 0.8; stroke-linecap: square"/>
     </g>
     <g id="line2d_48">
      <g>
       <use xlink:href="#md0fe6fa964" x="840.106667" y="492.48" style="fill: #24312e; stroke: #24312e; stroke-width: 0.8"/>
      </g>
     </g>
     <g id="text_26">
      <text style="fill: #24312e; font: 14px 'DejaVu Sans'; text-anchor: middle" x="840.106667" y="510.117813" transform="rotate(-0 840.106667 510.117813)">7</text>
     </g>
    </g>
    <g id="xtick_15">
     <g id="line2d_49">
      <path d="M 906.56 492.48 
L 906.56 142.56 
" clip-path="url(#p11fe058767)" style="fill: none; stroke: #52635d; stroke-opacity: 0.22; stroke-width: 0.8; stroke-linecap: square"/>
     </g>
     <g id="line2d_50">
      <g>
       <use xlink:href="#md0fe6fa964" x="906.56" y="492.48" style="fill: #24312e; stroke: #24312e; stroke-width: 0.8"/>
      </g>
     </g>
     <g id="text_27">
      <text style="fill: #24312e; font: 14px 'DejaVu Sans'; text-anchor: middle" x="906.56" y="510.117813" transform="rotate(-0 906.56 510.117813)">8</text>
     </g>
    </g>
    <g id="xtick_16">
     <g id="line2d_51">
      <path d="M 973.013333 492.48 
L 973.013333 142.56 
" clip-path="url(#p11fe058767)" style="fill: none; stroke: #52635d; stroke-opacity: 0.22; stroke-width: 0.8; stroke-linecap: square"/>
     </g>
     <g id="line2d_52">
      <g>
       <use xlink:href="#md0fe6fa964" x="973.013333" y="492.48" style="fill: #24312e; stroke: #24312e; stroke-width: 0.8"/>
      </g>
     </g>
     <g id="text_28">
      <text style="fill: #24312e; font: 14px 'DejaVu Sans'; text-anchor: middle" x="973.013333" y="510.117813" transform="rotate(-0 973.013333 510.117813)">9</text>
     </g>
    </g>
    <g id="xtick_17">
     <g id="line2d_53">
      <path d="M 1039.466667 492.48 
L 1039.466667 142.56 
" clip-path="url(#p11fe058767)" style="fill: none; stroke: #52635d; stroke-opacity: 0.22; stroke-width: 0.8; stroke-linecap: square"/>
     </g>
     <g id="line2d_54">
      <g>
       <use xlink:href="#md0fe6fa964" x="1039.466667" y="492.48" style="fill: #24312e; stroke: #24312e; stroke-width: 0.8"/>
      </g>
     </g>
     <g id="text_29">
      <text style="fill: #24312e; font: 14px 'DejaVu Sans'; text-anchor: middle" x="1039.466667" y="510.117813" transform="rotate(-0 1039.466667 510.117813)">10</text>
     </g>
    </g>
    <g id="xtick_18">
     <g id="line2d_55">
      <path d="M 1105.92 492.48 
L 1105.92 142.56 
" clip-path="url(#p11fe058767)" style="fill: none; stroke: #52635d; stroke-opacity: 0.22; stroke-width: 0.8; stroke-linecap: square"/>
     </g>
     <g id="line2d_56">
      <g>
       <use xlink:href="#md0fe6fa964" x="1105.92" y="492.48" style="fill: #24312e; stroke: #24312e; stroke-width: 0.8"/>
      </g>
     </g>
     <g id="text_30">
      <text style="fill: #24312e; font: 14px 'DejaVu Sans'; text-anchor: middle" x="1105.92" y="510.117813" transform="rotate(-0 1105.92 510.117813)">11</text>
     </g>
    </g>
    <g id="text_31">
     <text style="fill: #24312e; font: 14px 'DejaVu Sans'; text-anchor: middle" x="840.106667" y="527.667187" transform="rotate(-0 840.106667 527.667187)">Reported estimate c</text>
    </g>
   </g>
   <g id="matplotlib.axis_4">
    <g id="ytick_10">
     <g id="line2d_57">
      <path d="M 574.293333 492.48 
L 1105.92 492.48 
" clip-path="url(#p11fe058767)" style="fill: none; stroke: #52635d; stroke-opacity: 0.22; stroke-width: 0.8; stroke-linecap: square"/>
     </g>
     <g id="line2d_58">
      <g>
       <use xlink:href="#m66942d43a0" x="574.293333" y="492.48" style="fill: #24312e; stroke: #24312e; stroke-width: 0.8"/>
      </g>
     </g>
     <g id="text_32">
      <text style="fill: #24312e; font: 14px 'DejaVu Sans'; text-anchor: end" x="567.293333" y="497.798906" transform="rotate(-0 567.293333 497.798906)">0.0</text>
     </g>
    </g>
    <g id="ytick_11">
     <g id="line2d_59">
      <path d="M 574.293333 450.822857 
L 1105.92 450.822857 
" clip-path="url(#p11fe058767)" style="fill: none; stroke: #52635d; stroke-opacity: 0.22; stroke-width: 0.8; stroke-linecap: square"/>
     </g>
     <g id="line2d_60">
      <g>
       <use xlink:href="#m66942d43a0" x="574.293333" y="450.822857" style="fill: #24312e; stroke: #24312e; stroke-width: 0.8"/>
      </g>
     </g>
     <g id="text_33">
      <text style="fill: #24312e; font: 14px 'DejaVu Sans'; text-anchor: end" x="567.293333" y="456.141763" transform="rotate(-0 567.293333 456.141763)">2.5</text>
     </g>
    </g>
    <g id="ytick_12">
     <g id="line2d_61">
      <path d="M 574.293333 409.165714 
L 1105.92 409.165714 
" clip-path="url(#p11fe058767)" style="fill: none; stroke: #52635d; stroke-opacity: 0.22; stroke-width: 0.8; stroke-linecap: square"/>
     </g>
     <g id="line2d_62">
      <g>
       <use xlink:href="#m66942d43a0" x="574.293333" y="409.165714" style="fill: #24312e; stroke: #24312e; stroke-width: 0.8"/>
      </g>
     </g>
     <g id="text_34">
      <text style="fill: #24312e; font: 14px 'DejaVu Sans'; text-anchor: end" x="567.293333" y="414.484621" transform="rotate(-0 567.293333 414.484621)">5.0</text>
     </g>
    </g>
    <g id="ytick_13">
     <g id="line2d_63">
      <path d="M 574.293333 367.508571 
L 1105.92 367.508571 
" clip-path="url(#p11fe058767)" style="fill: none; stroke: #52635d; stroke-opacity: 0.22; stroke-width: 0.8; stroke-linecap: square"/>
     </g>
     <g id="line2d_64">
      <g>
       <use xlink:href="#m66942d43a0" x="574.293333" y="367.508571" style="fill: #24312e; stroke: #24312e; stroke-width: 0.8"/>
      </g>
     </g>
     <g id="text_35">
      <text style="fill: #24312e; font: 14px 'DejaVu Sans'; text-anchor: end" x="567.293333" y="372.827478" transform="rotate(-0 567.293333 372.827478)">7.5</text>
     </g>
    </g>
    <g id="ytick_14">
     <g id="line2d_65">
      <path d="M 574.293333 325.851429 
L 1105.92 325.851429 
" clip-path="url(#p11fe058767)" style="fill: none; stroke: #52635d; stroke-opacity: 0.22; stroke-width: 0.8; stroke-linecap: square"/>
     </g>
     <g id="line2d_66">
      <g>
       <use xlink:href="#m66942d43a0" x="574.293333" y="325.851429" style="fill: #24312e; stroke: #24312e; stroke-width: 0.8"/>
      </g>
     </g>
     <g id="text_36">
      <text style="fill: #24312e; font: 14px 'DejaVu Sans'; text-anchor: end" x="567.293333" y="331.170335" transform="rotate(-0 567.293333 331.170335)">10.0</text>
     </g>
    </g>
    <g id="ytick_15">
     <g id="line2d_67">
      <path d="M 574.293333 284.194286 
L 1105.92 284.194286 
" clip-path="url(#p11fe058767)" style="fill: none; stroke: #52635d; stroke-opacity: 0.22; stroke-width: 0.8; stroke-linecap: square"/>
     </g>
     <g id="line2d_68">
      <g>
       <use xlink:href="#m66942d43a0" x="574.293333" y="284.194286" style="fill: #24312e; stroke: #24312e; stroke-width: 0.8"/>
      </g>
     </g>
     <g id="text_37">
      <text style="fill: #24312e; font: 14px 'DejaVu Sans'; text-anchor: end" x="567.293333" y="289.513192" transform="rotate(-0 567.293333 289.513192)">12.5</text>
     </g>
    </g>
    <g id="ytick_16">
     <g id="line2d_69">
      <path d="M 574.293333 242.537143 
L 1105.92 242.537143 
" clip-path="url(#p11fe058767)" style="fill: none; stroke: #52635d; stroke-opacity: 0.22; stroke-width: 0.8; stroke-linecap: square"/>
     </g>
     <g id="line2d_70">
      <g>
       <use xlink:href="#m66942d43a0" x="574.293333" y="242.537143" style="fill: #24312e; stroke: #24312e; stroke-width: 0.8"/>
      </g>
     </g>
     <g id="text_38">
      <text style="fill: #24312e; font: 14px 'DejaVu Sans'; text-anchor: end" x="567.293333" y="247.856049" transform="rotate(-0 567.293333 247.856049)">15.0</text>
     </g>
    </g>
    <g id="ytick_17">
     <g id="line2d_71">
      <path d="M 574.293333 200.88 
L 1105.92 200.88 
" clip-path="url(#p11fe058767)" style="fill: none; stroke: #52635d; stroke-opacity: 0.22; stroke-width: 0.8; stroke-linecap: square"/>
     </g>
     <g id="line2d_72">
      <g>
       <use xlink:href="#m66942d43a0" x="574.293333" y="200.88" style="fill: #24312e; stroke: #24312e; stroke-width: 0.8"/>
      </g>
     </g>
     <g id="text_39">
      <text style="fill: #24312e; font: 14px 'DejaVu Sans'; text-anchor: end" x="567.293333" y="206.198906" transform="rotate(-0 567.293333 206.198906)">17.5</text>
     </g>
    </g>
    <g id="ytick_18">
     <g id="line2d_73">
      <path d="M 574.293333 159.222857 
L 1105.92 159.222857 
" clip-path="url(#p11fe058767)" style="fill: none; stroke: #52635d; stroke-opacity: 0.22; stroke-width: 0.8; stroke-linecap: square"/>
     </g>
     <g id="line2d_74">
      <g>
       <use xlink:href="#m66942d43a0" x="574.293333" y="159.222857" style="fill: #24312e; stroke: #24312e; stroke-width: 0.8"/>
      </g>
     </g>
     <g id="text_40">
      <text style="fill: #24312e; font: 14px 'DejaVu Sans'; text-anchor: end" x="567.293333" y="164.541763" transform="rotate(-0 567.293333 164.541763)">20.0</text>
     </g>
    </g>
    <g id="text_41">
     <text style="fill: #24312e; font: 14px 'DejaVu Sans'; text-anchor: middle" x="529.209896" y="317.52" transform="rotate(-90 529.209896 317.52)">Expected squared error</text>
    </g>
   </g>
   <g id="line2d_75">
    <path d="M 574.293333 175.885714 
L 582.267733 191.642112 
L 590.242133 206.918619 
L 598.216533 221.715237 
L 606.190933 236.031963 
L 614.165333 249.8688 
L 622.139733 263.225746 
L 630.114133 276.102802 
L 638.088533 288.499968 
L 646.062933 300.417243 
L 652.708267 309.981723 
L 659.3536 319.212946 
L 665.998933 328.110912 
L 672.644267 336.675621 
L 679.2896 344.907072 
L 685.934933 352.805266 
L 692.580267 360.370203 
L 699.2256 367.601883 
L 705.870933 374.500306 
L 712.516267 381.065472 
L 719.1616 387.297381 
L 725.806933 393.196032 
L 732.452267 398.761426 
L 739.0976 403.993563 
L 745.742933 408.892443 
L 752.388267 413.458066 
L 757.704533 416.870619 
L 763.0208 420.069888 
L 768.337067 423.055872 
L 773.653333 425.828571 
L 778.9696 428.387986 
L 784.285867 430.734117 
L 789.602133 432.866962 
L 794.9184 434.786523 
L 800.234667 436.4928 
L 805.550933 437.985792 
L 810.8672 439.265499 
L 816.183467 440.331922 
L 821.499733 441.185061 
L 826.816 441.824914 
L 832.132267 442.251483 
L 837.448533 442.464768 
L 842.7648 442.464768 
L 848.081067 442.251483 
L 853.397333 441.824914 
L 858.7136 441.185061 
L 864.029867 440.331922 
L 869.346133 439.265499 
L 874.6624 437.985792 
L 879.978667 436.4928 
L 885.294933 434.786523 
L 890.6112 432.866962 
L 895.927467 430.734117 
L 901.243733 428.387986 
L 906.56 425.828571 
L 911.876267 423.055872 
L 917.192533 420.069888 
L 922.5088 416.870619 
L 927.825067 413.458066 
L 934.4704 408.892443 
L 941.115733 403.993563 
L 947.761067 398.761426 
L 954.4064 393.196032 
L 961.051733 387.297381 
L 967.697067 381.065472 
L 974.3424 374.500306 
L 980.987733 367.601883 
L 987.633067 360.370203 
L 994.2784 352.805266 
L 1000.923733 344.907072 
L 1007.569067 336.675621 
L 1014.2144 328.110912 
L 1020.859733 319.212946 
L 1027.505067 309.981723 
L 1034.1504 300.417243 
L 1040.795733 290.519506 
L 1048.770133 278.202322 
L 1056.744533 265.405248 
L 1064.718933 252.128283 
L 1072.693333 238.371429 
L 1080.667733 224.134683 
L 1088.642133 209.418048 
L 1096.616533 194.221522 
L 1104.590933 178.545106 
L 1105.92 175.885714 
L 1105.92 175.885714 
" clip-path="url(#p11fe058767)" style="fill: none; stroke: #98533f; stroke-width: 3; stroke-linecap: square"/>
   </g>
   <g id="patch_6">
    <path d="M 574.293333 492.48 
L 574.293333 142.56 
" style="fill: none; stroke: #52635d; stroke-width: 0.8; stroke-linejoin: miter; stroke-linecap: square"/>
   </g>
   <g id="patch_7">
    <path d="M 574.293333 492.48 
L 1105.92 492.48 
" style="fill: none; stroke: #52635d; stroke-width: 0.8; stroke-linejoin: miter; stroke-linecap: square"/>
   </g>
   <g id="patch_8">
    <path d="M 921.510429 398.777188 
Q 881.689213 420.161386 842.852992 441.016638 
" style="fill: none; stroke: #98533f; stroke-linecap: round"/>
    <path d="M 850.005366 440.807986 
L 842.852992 441.016638 
L 846.977495 435.169547 
" style="fill: none; stroke: #98533f; stroke-linecap: round"/>
   </g>
   <g id="text_42">
    <text style="fill: #24312e; font: 16px 'DejaVu Sans'" transform="translate(886.624 374.586357)">Minimum at c = 7</text>
    <text style="fill: #24312e; font: 16px 'DejaVu Sans'" transform="translate(886.624 392.502857)">residual risk = 3</text>
   </g>
   <g id="text_43">
    <!-- $R(c)=3+(c-7)^2$ -->
    <g style="fill: #24312e" transform="translate(766.186667 136.56)">
     <text>
      <tspan style="font: oblique 16.8px 'DejaVu Sans'" x="0 18.173096 92.231323" y="-0.6546875000000014">Rcc</tspan>
      <tspan style="font: 16.8px 'DejaVu Sans'" x="11.638306 27.382324 37.18042 54.478394 68.39856 85.696533 104.703857 122.001831 132.658691" y="-0.6546875000000014">()=3+(−7)</tspan>
      <tspan style="font: 11.76px 'DejaVu Sans'" x="139.356177" y="-7.162500000000001">2</tspan>
     </text>
    </g>
   </g>
   <g id="PathCollection_1">
    <defs>
     <path id="m50c673ead8" d="M 0 4.743416 
C 1.257969 4.743416 2.464584 4.24362 3.354102 3.354102 
C 4.24362 2.464584 4.743416 1.257969 4.743416 0 
C 4.743416 -1.257969 4.24362 -2.464584 3.354102 -3.354102 
C 2.464584 -4.24362 1.257969 -4.743416 0 -4.743416 
C -1.257969 -4.743416 -2.464584 -4.24362 -3.354102 -3.354102 
C -4.24362 -2.464584 -4.743416 -1.257969 -4.743416 0 
C -4.743416 1.257969 -4.24362 2.464584 -3.354102 3.354102 
C -2.464584 4.24362 -1.257969 4.743416 0 4.743416 
z
" style="stroke: #98533f"/>
    </defs>
    <g clip-path="url(#p11fe058767)">
     <use xlink:href="#m50c673ead8" x="840.106667" y="442.491429" style="fill: #98533f; stroke: #98533f"/>
    </g>
   </g>
  </g>
  <g id="text_44">
   <text style="fill: #24312e; font: 700 27px 'DejaVu Sans'; text-anchor: start" x="80.64" y="45.36" transform="rotate(-0 80.64 45.36)">Why the mean minimizes squared error</text>
  </g>
  <g id="text_45">
   <!-- Lecture warm-up: $\Theta\sim\mathrm{Uniform}(4,10)$ · mean 7 · variance 3 -->
   <g style="fill: #52635d" transform="translate(80.64 84.24)">
    <text>
     <tspan style="font: 18px 'DejaVu Sans'" x="0 10.02832 21.102539 30.999023 38.056641 49.464844 56.865234 67.939453 73.661133 88.382812 99.413086 106.813477 123.972656 130.467773 141.875977 153.301758 159.366211 165.087891 182.762695 201.351562 214.526367 225.93457 230.935547 237.272461 248.285156 255.685547 273.219727 280.242188 291.694336 300.922852 312.375 323.827148 330.849609 336.571289 342.292969 348.014648 365.548828 376.623047 387.65332 399.061523 404.783203 416.235352 421.957031 427.678711 433.400391 444.052734 455.083008 462.483398 467.484375 478.514648 489.922852 499.819336 510.893555 516.615234" y="-0.328125">Lecture warm-up: Θ∼Uniform(4,10) · mean 7 · variance 3</tspan>
    </text>
   </g>
  </g>
  <g id="text_46">
   <!-- $\mathbb{E}[(\Theta-c)^2]=\mathrm{Var}(\Theta)+(c-\mathbb{E}[\Theta])^2$ -->
   <g style="fill: #24312e" transform="translate(80.64 557.28)">
    <text>
     <tspan style="font: italic 22px 'STIXNonUnicode'" x="0 289.17294" y="-0.1484375"></tspan>
     <tspan style="font: 22px 'DejaVu Sans'" x="14.057999 22.641006 31.224014 52.826553 87.641983 106.835049 119.70419 142.423917 157.473721 170.955167 180.000089 188.583096 205.899503 218.768643 241.48837 266.453214 303.230939 311.813947 329.130353 337.713361" y="-0.1484375">[(Θ−)]=Var(Θ)+(−[Θ])</tspan>
     <tspan style="font: oblique 22px 'DejaVu Sans'" x="75.54628 250.071378" y="-0.1484375">cc</tspan>
     <tspan style="font: 15.4px 'DejaVu Sans'" x="96.435538 346.506915" y="-8.5703125">22</tspan>
    </text>
   </g>
  </g>
  <g id="text_47">
   <text style="fill: #52635d; font: 16px 'DejaVu Sans'; text-anchor: start" x="80.64" y="605.88" transform="rotate(-0 80.64 605.88)">After data: the same decomposition uses the posterior mean and posterior variance.</text>
  </g>
 </g>
 <defs>
  <clipPath id="p123ead7eae">
   <rect x="80.64" y="142.56" width="379.733333" height="349.92"/>
  </clipPath>
  <clipPath id="p11fe058767">
   <rect x="574.293333" y="142.56" width="531.626667" height="349.92"/>
  </clipPath>
 </defs>
</svg>
